<svg width="359" height="359" viewBox="0 0 359 359" fill="none" xmlns="http://www.w3.org/2000/svg">
<rect x="1.335" y="1.335" width="356.33" height="356.33" fill="#F5F5F5" stroke="#F5F5F5" stroke-width="2.67"/>
<rect x="9" y="9" width="341" height="341" fill="#E1E1F6" stroke="black" stroke-width="12"/>
<mask id="mask0_10_24739" style="mask-type:luminance" maskUnits="userSpaceOnUse" x="0" y="3" width="358" height="355">
<path d="M357.275 3H0V357.97H357.275V3Z" fill="white"/>
</mask>
<g mask="url(#mask0_10_24739)">
<path d="M337.934 170.939L341.035 170.164" stroke="black" stroke-width="0.666667" stroke-linecap="square"/>
</g>
<mask id="mask1_10_24739" style="mask-type:luminance" maskUnits="userSpaceOnUse" x="0" y="3" width="358" height="355">
<path d="M357.275 3H0V357.97H357.275V3Z" fill="white"/>
</mask>
<g mask="url(#mask1_10_24739)">
<path d="M334.832 161.394L341.035 159.76" stroke="black" stroke-width="0.666667" stroke-linecap="square"/>
</g>
<mask id="mask2_10_24739" style="mask-type:luminance" maskUnits="userSpaceOnUse" x="0" y="3" width="358" height="355">
<path d="M357.275 3H0V357.97H357.275V3Z" fill="white"/>
</mask>
<g mask="url(#mask2_10_24739)">
<path d="M331.73 151.848L341.035 149.185" stroke="black" stroke-width="0.666667" stroke-linecap="square"/>
</g>
<mask id="mask3_10_24739" style="mask-type:luminance" maskUnits="userSpaceOnUse" x="0" y="3" width="358" height="355">
<path d="M357.275 3H0V357.97H357.275V3Z" fill="white"/>
</mask>
<g mask="url(#mask3_10_24739)">
<path d="M328.629 142.303L341.035 138.349" stroke="black" stroke-width="0.666667" stroke-linecap="square"/>
</g>
<mask id="mask4_10_24739" style="mask-type:luminance" maskUnits="userSpaceOnUse" x="0" y="3" width="358" height="355">
<path d="M357.275 3H0V357.97H357.275V3Z" fill="white"/>
</mask>
<g mask="url(#mask4_10_24739)">
<path d="M325.528 132.758L341.035 127.148" stroke="black" stroke-width="0.666667" stroke-linecap="square"/>
</g>
<mask id="mask5_10_24739" style="mask-type:luminance" maskUnits="userSpaceOnUse" x="0" y="3" width="358" height="355">
<path d="M357.275 3H0V357.97H357.275V3Z" fill="white"/>
</mask>
<g mask="url(#mask5_10_24739)">
<path d="M322.426 123.212L341.035 115.471" stroke="black" stroke-width="0.666667" stroke-linecap="square"/>
</g>
<mask id="mask6_10_24739" style="mask-type:luminance" maskUnits="userSpaceOnUse" x="0" y="3" width="358" height="355">
<path d="M357.275 3H0V357.97H357.275V3Z" fill="white"/>
</mask>
<g mask="url(#mask6_10_24739)">
<path d="M319.325 113.667L341.035 103.183" stroke="black" stroke-width="0.666667" stroke-linecap="square"/>
</g>
<mask id="mask7_10_24739" style="mask-type:luminance" maskUnits="userSpaceOnUse" x="0" y="3" width="358" height="355">
<path d="M357.275 3H0V357.97H357.275V3Z" fill="white"/>
</mask>
<g mask="url(#mask7_10_24739)">
<path d="M316.223 104.121L341.035 90.1294" stroke="black" stroke-width="0.666667" stroke-linecap="square"/>
</g>
<mask id="mask8_10_24739" style="mask-type:luminance" maskUnits="userSpaceOnUse" x="0" y="3" width="358" height="355">
<path d="M357.275 3H0V357.97H357.275V3Z" fill="white"/>
</mask>
<g mask="url(#mask8_10_24739)">
<path d="M313.122 94.5756L341.035 76.1184" stroke="black" stroke-width="0.666667" stroke-linecap="square"/>
</g>
<mask id="mask9_10_24739" style="mask-type:luminance" maskUnits="userSpaceOnUse" x="0" y="3" width="358" height="355">
<path d="M357.275 3H0V357.97H357.275V3Z" fill="white"/>
</mask>
<g mask="url(#mask9_10_24739)">
<path d="M310.02 85.03L341.035 60.9141" stroke="black" stroke-width="0.666667" stroke-linecap="square"/>
</g>
<mask id="mask10_10_24739" style="mask-type:luminance" maskUnits="userSpaceOnUse" x="0" y="3" width="358" height="355">
<path d="M357.275 3H0V357.97H357.275V3Z" fill="white"/>
</mask>
<g mask="url(#mask10_10_24739)">
<path d="M301.9 79.1305L341.035 44.217" stroke="black" stroke-width="0.666667" stroke-linecap="square"/>
</g>
<mask id="mask11_10_24739" style="mask-type:luminance" maskUnits="userSpaceOnUse" x="0" y="3" width="358" height="355">
<path d="M357.275 3H0V357.97H357.275V3Z" fill="white"/>
</mask>
<g mask="url(#mask11_10_24739)">
<path d="M293.78 73.2312L341.035 25.6392" stroke="black" stroke-width="0.666667" stroke-linecap="square"/>
</g>
<mask id="mask12_10_24739" style="mask-type:luminance" maskUnits="userSpaceOnUse" x="0" y="3" width="358" height="355">
<path d="M357.275 3H0V357.97H357.275V3Z" fill="white"/>
</mask>
<g mask="url(#mask12_10_24739)">
<path d="M285.66 67.3316L328.637 18.0872" stroke="black" stroke-width="0.666667" stroke-linecap="square"/>
</g>
<mask id="mask13_10_24739" style="mask-type:luminance" maskUnits="userSpaceOnUse" x="0" y="3" width="358" height="355">
<path d="M357.275 3H0V357.97H357.275V3Z" fill="white"/>
</mask>
<g mask="url(#mask13_10_24739)">
<path d="M277.541 61.4321L310.572 18.0872" stroke="black" stroke-width="0.666667" stroke-linecap="square"/>
</g>
<mask id="mask14_10_24739" style="mask-type:luminance" maskUnits="userSpaceOnUse" x="0" y="3" width="358" height="355">
<path d="M357.275 3H0V357.97H357.275V3Z" fill="white"/>
</mask>
<g mask="url(#mask14_10_24739)">
<path d="M269.42 55.5327L294.28 18.0872" stroke="black" stroke-width="0.666667" stroke-linecap="square"/>
</g>
<mask id="mask15_10_24739" style="mask-type:luminance" maskUnits="userSpaceOnUse" x="0" y="3" width="358" height="355">
<path d="M357.275 3H0V357.97H357.275V3Z" fill="white"/>
</mask>
<g mask="url(#mask15_10_24739)">
<path d="M261.301 49.6332L279.4 18.0872" stroke="black" stroke-width="0.666667" stroke-linecap="square"/>
</g>
<mask id="mask16_10_24739" style="mask-type:luminance" maskUnits="userSpaceOnUse" x="0" y="3" width="358" height="355">
<path d="M357.275 3H0V357.97H357.275V3Z" fill="white"/>
</mask>
<g mask="url(#mask16_10_24739)">
<path d="M253.181 43.7338L265.648 18.0872" stroke="black" stroke-width="0.666667" stroke-linecap="square"/>
</g>
<mask id="mask17_10_24739" style="mask-type:luminance" maskUnits="userSpaceOnUse" x="0" y="3" width="358" height="355">
<path d="M357.275 3H0V357.97H357.275V3Z" fill="white"/>
</mask>
<g mask="url(#mask17_10_24739)">
<path d="M245.061 37.8343L252.802 18.0872" stroke="black" stroke-width="0.666667" stroke-linecap="square"/>
</g>
<mask id="mask18_10_24739" style="mask-type:luminance" maskUnits="userSpaceOnUse" x="0" y="3" width="358" height="355">
<path d="M357.275 3H0V357.97H357.275V3Z" fill="white"/>
</mask>
<g mask="url(#mask18_10_24739)">
<path d="M236.941 31.9349L240.681 18.0872" stroke="black" stroke-width="0.666667" stroke-linecap="square"/>
</g>
<mask id="mask19_10_24739" style="mask-type:luminance" maskUnits="userSpaceOnUse" x="0" y="3" width="358" height="355">
<path d="M357.275 3H0V357.97H357.275V3Z" fill="white"/>
</mask>
<g mask="url(#mask19_10_24739)">
<path d="M228.821 26.0355L229.134 18.0872" stroke="black" stroke-width="0.666667" stroke-linecap="square"/>
</g>
<mask id="mask20_10_24739" style="mask-type:luminance" maskUnits="userSpaceOnUse" x="0" y="3" width="358" height="355">
<path d="M357.275 3H0V357.97H357.275V3Z" fill="white"/>
</mask>
<g mask="url(#mask20_10_24739)">
<path d="M218.784 26.0355L218.035 18.0872" stroke="black" stroke-width="0.666667" stroke-linecap="square"/>
</g>
<mask id="mask21_10_24739" style="mask-type:luminance" maskUnits="userSpaceOnUse" x="0" y="3" width="358" height="355">
<path d="M357.275 3H0V357.97H357.275V3Z" fill="white"/>
</mask>
<g mask="url(#mask21_10_24739)">
<path d="M208.748 26.0355L207.272 18.0872" stroke="black" stroke-width="0.666667" stroke-linecap="square"/>
</g>
<mask id="mask22_10_24739" style="mask-type:luminance" maskUnits="userSpaceOnUse" x="0" y="3" width="358" height="355">
<path d="M357.275 3H0V357.97H357.275V3Z" fill="white"/>
</mask>
<g mask="url(#mask22_10_24739)">
<path d="M198.711 26.0355L196.749 18.0872" stroke="black" stroke-width="0.666667" stroke-linecap="square"/>
</g>
<mask id="mask23_10_24739" style="mask-type:luminance" maskUnits="userSpaceOnUse" x="0" y="3" width="358" height="355">
<path d="M357.275 3H0V357.97H357.275V3Z" fill="white"/>
</mask>
<g mask="url(#mask23_10_24739)">
<path d="M188.674 26.0355L186.374 18.0872" stroke="black" stroke-width="0.666667" stroke-linecap="square"/>
</g>
<mask id="mask24_10_24739" style="mask-type:luminance" maskUnits="userSpaceOnUse" x="0" y="3" width="358" height="355">
<path d="M357.275 3H0V357.97H357.275V3Z" fill="white"/>
</mask>
<g mask="url(#mask24_10_24739)">
<path d="M178.637 26.0355L176.061 18.0872" stroke="black" stroke-width="0.666667" stroke-linecap="square"/>
</g>
<mask id="mask25_10_24739" style="mask-type:luminance" maskUnits="userSpaceOnUse" x="0" y="3" width="358" height="355">
<path d="M357.275 3H0V357.97H357.275V3Z" fill="white"/>
</mask>
<g mask="url(#mask25_10_24739)">
<path d="M168.601 26.0355L165.727 18.0872" stroke="black" stroke-width="0.666667" stroke-linecap="square"/>
</g>
<mask id="mask26_10_24739" style="mask-type:luminance" maskUnits="userSpaceOnUse" x="0" y="3" width="358" height="355">
<path d="M357.275 3H0V357.97H357.275V3Z" fill="white"/>
</mask>
<g mask="url(#mask26_10_24739)">
<path d="M158.564 26.0355L155.288 18.0872" stroke="black" stroke-width="0.666667" stroke-linecap="square"/>
</g>
<mask id="mask27_10_24739" style="mask-type:luminance" maskUnits="userSpaceOnUse" x="0" y="3" width="358" height="355">
<path d="M357.275 3H0V357.97H357.275V3Z" fill="white"/>
</mask>
<g mask="url(#mask27_10_24739)">
<path d="M148.527 26.0355L144.657 18.0872" stroke="black" stroke-width="0.666667" stroke-linecap="square"/>
</g>
<mask id="mask28_10_24739" style="mask-type:luminance" maskUnits="userSpaceOnUse" x="0" y="3" width="358" height="355">
<path d="M357.275 3H0V357.97H357.275V3Z" fill="white"/>
</mask>
<g mask="url(#mask28_10_24739)">
<path d="M138.49 26.0355L133.739 18.0872" stroke="black" stroke-width="0.666667" stroke-linecap="square"/>
</g>
<mask id="mask29_10_24739" style="mask-type:luminance" maskUnits="userSpaceOnUse" x="0" y="3" width="358" height="355">
<path d="M357.275 3H0V357.97H357.275V3Z" fill="white"/>
</mask>
<g mask="url(#mask29_10_24739)">
<path d="M128.454 26.0355L122.431 18.0872" stroke="black" stroke-width="0.666667" stroke-linecap="square"/>
</g>
<mask id="mask30_10_24739" style="mask-type:luminance" maskUnits="userSpaceOnUse" x="0" y="3" width="358" height="355">
<path d="M357.275 3H0V357.97H357.275V3Z" fill="white"/>
</mask>
<g mask="url(#mask30_10_24739)">
<path d="M120.334 31.9349L110.614 18.0872" stroke="black" stroke-width="0.666667" stroke-linecap="square"/>
</g>
<mask id="mask31_10_24739" style="mask-type:luminance" maskUnits="userSpaceOnUse" x="0" y="3" width="358" height="355">
<path d="M357.275 3H0V357.97H357.275V3Z" fill="white"/>
</mask>
<g mask="url(#mask31_10_24739)">
<path d="M112.214 37.8344L98.1509 18.0872" stroke="black" stroke-width="0.666667" stroke-linecap="square"/>
</g>
<mask id="mask32_10_24739" style="mask-type:luminance" maskUnits="userSpaceOnUse" x="0" y="3" width="358" height="355">
<path d="M357.275 3H0V357.97H357.275V3Z" fill="white"/>
</mask>
<g mask="url(#mask32_10_24739)">
<path d="M104.094 43.7338L84.877 18.0872" stroke="black" stroke-width="0.666667" stroke-linecap="square"/>
</g>
<mask id="mask33_10_24739" style="mask-type:luminance" maskUnits="userSpaceOnUse" x="0" y="3" width="358" height="355">
<path d="M357.275 3H0V357.97H357.275V3Z" fill="white"/>
</mask>
<g mask="url(#mask33_10_24739)">
<path d="M95.9745 49.6333L70.5923 18.0872" stroke="black" stroke-width="0.666667" stroke-linecap="square"/>
</g>
<mask id="mask34_10_24739" style="mask-type:luminance" maskUnits="userSpaceOnUse" x="0" y="3" width="358" height="355">
<path d="M357.275 3H0V357.97H357.275V3Z" fill="white"/>
</mask>
<g mask="url(#mask34_10_24739)">
<path d="M87.8546 55.5327L55.0459 18.0872" stroke="black" stroke-width="0.666667" stroke-linecap="square"/>
</g>
<mask id="mask35_10_24739" style="mask-type:luminance" maskUnits="userSpaceOnUse" x="0" y="3" width="358" height="355">
<path d="M357.275 3H0V357.97H357.275V3Z" fill="white"/>
</mask>
<g mask="url(#mask35_10_24739)">
<path d="M79.7344 61.4322L37.9189 18.0872" stroke="black" stroke-width="0.666667" stroke-linecap="square"/>
</g>
<mask id="mask36_10_24739" style="mask-type:luminance" maskUnits="userSpaceOnUse" x="0" y="3" width="358" height="355">
<path d="M357.275 3H0V357.97H357.275V3Z" fill="white"/>
</mask>
<g mask="url(#mask36_10_24739)">
<path d="M71.6148 67.3316L18.7964 18.0872" stroke="black" stroke-width="0.666667" stroke-linecap="square"/>
</g>
<mask id="mask37_10_24739" style="mask-type:luminance" maskUnits="userSpaceOnUse" x="0" y="3" width="358" height="355">
<path d="M357.275 3H0V357.97H357.275V3Z" fill="white"/>
</mask>
<g mask="url(#mask37_10_24739)">
<path d="M63.4947 73.2311L16.2397 35.1919" stroke="black" stroke-width="0.666667" stroke-linecap="square"/>
</g>
<mask id="mask38_10_24739" style="mask-type:luminance" maskUnits="userSpaceOnUse" x="0" y="3" width="358" height="355">
<path d="M357.275 3H0V357.97H357.275V3Z" fill="white"/>
</mask>
<g mask="url(#mask38_10_24739)">
<path d="M55.3748 79.1305L16.2397 52.7739" stroke="black" stroke-width="0.666667" stroke-linecap="square"/>
</g>
<mask id="mask39_10_24739" style="mask-type:luminance" maskUnits="userSpaceOnUse" x="0" y="3" width="358" height="355">
<path d="M357.275 3H0V357.97H357.275V3Z" fill="white"/>
</mask>
<g mask="url(#mask39_10_24739)">
<path d="M47.2549 85.03L16.2397 68.6824" stroke="black" stroke-width="0.666667" stroke-linecap="square"/>
</g>
<mask id="mask40_10_24739" style="mask-type:luminance" maskUnits="userSpaceOnUse" x="0" y="3" width="358" height="355">
<path d="M357.275 3H0V357.97H357.275V3Z" fill="white"/>
</mask>
<g mask="url(#mask40_10_24739)">
<path d="M44.1534 94.5756L16.2397 83.2571" stroke="black" stroke-width="0.666667" stroke-linecap="square"/>
</g>
<mask id="mask41_10_24739" style="mask-type:luminance" maskUnits="userSpaceOnUse" x="0" y="3" width="358" height="355">
<path d="M357.275 3H0V357.97H357.275V3Z" fill="white"/>
</mask>
<g mask="url(#mask41_10_24739)">
<path d="M41.0519 104.121L16.2397 96.7632" stroke="black" stroke-width="0.666667" stroke-linecap="square"/>
</g>
<mask id="mask42_10_24739" style="mask-type:luminance" maskUnits="userSpaceOnUse" x="0" y="3" width="358" height="355">
<path d="M357.275 3H0V357.97H357.275V3Z" fill="white"/>
</mask>
<g mask="url(#mask42_10_24739)">
<path d="M37.9504 113.666L16.2397 109.412" stroke="black" stroke-width="0.666667" stroke-linecap="square"/>
</g>
<mask id="mask43_10_24739" style="mask-type:luminance" maskUnits="userSpaceOnUse" x="0" y="3" width="358" height="355">
<path d="M357.275 3H0V357.97H357.275V3Z" fill="white"/>
</mask>
<g mask="url(#mask43_10_24739)">
<path d="M34.8489 123.212L16.2397 121.377" stroke="black" stroke-width="0.666667" stroke-linecap="square"/>
</g>
<mask id="mask44_10_24739" style="mask-type:luminance" maskUnits="userSpaceOnUse" x="0" y="3" width="358" height="355">
<path d="M357.275 3H0V357.97H357.275V3Z" fill="white"/>
</mask>
<g mask="url(#mask44_10_24739)">
<path d="M31.7473 132.758L16.2397 132.801" stroke="black" stroke-width="0.666667" stroke-linecap="square"/>
</g>
<mask id="mask45_10_24739" style="mask-type:luminance" maskUnits="userSpaceOnUse" x="0" y="3" width="358" height="355">
<path d="M357.275 3H0V357.97H357.275V3Z" fill="white"/>
</mask>
<g mask="url(#mask45_10_24739)">
<path d="M28.6458 142.303L16.2397 143.806" stroke="black" stroke-width="0.666667" stroke-linecap="square"/>
</g>
<mask id="mask46_10_24739" style="mask-type:luminance" maskUnits="userSpaceOnUse" x="0" y="3" width="358" height="355">
<path d="M357.275 3H0V357.97H357.275V3Z" fill="white"/>
</mask>
<g mask="url(#mask46_10_24739)">
<path d="M25.5443 151.849L16.2397 154.5" stroke="black" stroke-width="0.666667" stroke-linecap="square"/>
</g>
<mask id="mask47_10_24739" style="mask-type:luminance" maskUnits="userSpaceOnUse" x="0" y="3" width="358" height="355">
<path d="M357.275 3H0V357.97H357.275V3Z" fill="white"/>
</mask>
<g mask="url(#mask47_10_24739)">
<path d="M22.4428 161.394L16.2397 164.978" stroke="black" stroke-width="0.666667" stroke-linecap="square"/>
</g>
<mask id="mask48_10_24739" style="mask-type:luminance" maskUnits="userSpaceOnUse" x="0" y="3" width="358" height="355">
<path d="M357.275 3H0V357.97H357.275V3Z" fill="white"/>
</mask>
<g mask="url(#mask48_10_24739)">
<path d="M19.3413 170.939L16.2397 175.33" stroke="black" stroke-width="0.666667" stroke-linecap="square"/>
</g>
<mask id="mask49_10_24739" style="mask-type:luminance" maskUnits="userSpaceOnUse" x="0" y="3" width="358" height="355">
<path d="M357.275 3H0V357.97H357.275V3Z" fill="white"/>
</mask>
<g mask="url(#mask49_10_24739)">
<path d="M16.2397 180.485V185.64" stroke="black" stroke-width="0.666667" stroke-linecap="square"/>
</g>
<mask id="mask50_10_24739" style="mask-type:luminance" maskUnits="userSpaceOnUse" x="0" y="3" width="358" height="355">
<path d="M357.275 3H0V357.97H357.275V3Z" fill="white"/>
</mask>
<g mask="url(#mask50_10_24739)">
<path d="M19.3413 190.031L16.2397 195.992" stroke="black" stroke-width="0.666667" stroke-linecap="square"/>
</g>
<mask id="mask51_10_24739" style="mask-type:luminance" maskUnits="userSpaceOnUse" x="0" y="3" width="358" height="355">
<path d="M357.275 3H0V357.97H357.275V3Z" fill="white"/>
</mask>
<g mask="url(#mask51_10_24739)">
<path d="M22.4428 199.576L16.2397 206.47" stroke="black" stroke-width="0.666667" stroke-linecap="square"/>
</g>
<mask id="mask52_10_24739" style="mask-type:luminance" maskUnits="userSpaceOnUse" x="0" y="3" width="358" height="355">
<path d="M357.275 3H0V357.97H357.275V3Z" fill="white"/>
</mask>
<g mask="url(#mask52_10_24739)">
<path d="M25.5443 209.121L16.2397 217.164" stroke="black" stroke-width="0.666667" stroke-linecap="square"/>
</g>
<mask id="mask53_10_24739" style="mask-type:luminance" maskUnits="userSpaceOnUse" x="0" y="3" width="358" height="355">
<path d="M357.275 3H0V357.97H357.275V3Z" fill="white"/>
</mask>
<g mask="url(#mask53_10_24739)">
<path d="M28.6458 218.667L16.2397 228.169" stroke="black" stroke-width="0.666667" stroke-linecap="square"/>
</g>
<mask id="mask54_10_24739" style="mask-type:luminance" maskUnits="userSpaceOnUse" x="0" y="3" width="358" height="355">
<path d="M357.275 3H0V357.97H357.275V3Z" fill="white"/>
</mask>
<g mask="url(#mask54_10_24739)">
<path d="M31.7473 228.212L16.2397 239.593" stroke="black" stroke-width="0.666667" stroke-linecap="square"/>
</g>
<mask id="mask55_10_24739" style="mask-type:luminance" maskUnits="userSpaceOnUse" x="0" y="3" width="358" height="355">
<path d="M357.275 3H0V357.97H357.275V3Z" fill="white"/>
</mask>
<g mask="url(#mask55_10_24739)">
<path d="M34.8489 237.758L16.2397 251.558" stroke="black" stroke-width="0.666667" stroke-linecap="square"/>
</g>
<mask id="mask56_10_24739" style="mask-type:luminance" maskUnits="userSpaceOnUse" x="0" y="3" width="358" height="355">
<path d="M357.275 3H0V357.97H357.275V3Z" fill="white"/>
</mask>
<g mask="url(#mask56_10_24739)">
<path d="M37.9504 247.303L16.2397 264.207" stroke="black" stroke-width="0.666667" stroke-linecap="square"/>
</g>
<mask id="mask57_10_24739" style="mask-type:luminance" maskUnits="userSpaceOnUse" x="0" y="3" width="358" height="355">
<path d="M357.275 3H0V357.97H357.275V3Z" fill="white"/>
</mask>
<g mask="url(#mask57_10_24739)">
<path d="M41.0519 256.849L16.2397 277.713" stroke="black" stroke-width="0.666667" stroke-linecap="square"/>
</g>
<mask id="mask58_10_24739" style="mask-type:luminance" maskUnits="userSpaceOnUse" x="0" y="3" width="358" height="355">
<path d="M357.275 3H0V357.97H357.275V3Z" fill="white"/>
</mask>
<g mask="url(#mask58_10_24739)">
<path d="M44.1534 266.395L16.2397 292.288" stroke="black" stroke-width="0.666667" stroke-linecap="square"/>
</g>
<mask id="mask59_10_24739" style="mask-type:luminance" maskUnits="userSpaceOnUse" x="0" y="3" width="358" height="355">
<path d="M357.275 3H0V357.97H357.275V3Z" fill="white"/>
</mask>
<g mask="url(#mask59_10_24739)">
<path d="M47.2549 275.94L16.2397 308.196" stroke="black" stroke-width="0.666667" stroke-linecap="square"/>
</g>
<mask id="mask60_10_24739" style="mask-type:luminance" maskUnits="userSpaceOnUse" x="0" y="3" width="358" height="355">
<path d="M357.275 3H0V357.97H357.275V3Z" fill="white"/>
</mask>
<g mask="url(#mask60_10_24739)">
<path d="M55.3748 281.839L16.2397 325.778" stroke="black" stroke-width="0.666667" stroke-linecap="square"/>
</g>
<mask id="mask61_10_24739" style="mask-type:luminance" maskUnits="userSpaceOnUse" x="0" y="3" width="358" height="355">
<path d="M357.275 3H0V357.97H357.275V3Z" fill="white"/>
</mask>
<g mask="url(#mask61_10_24739)">
<path d="M63.4948 287.739L18.7964 342.883" stroke="black" stroke-width="0.666667" stroke-linecap="square"/>
</g>
<mask id="mask62_10_24739" style="mask-type:luminance" maskUnits="userSpaceOnUse" x="0" y="3" width="358" height="355">
<path d="M357.275 3H0V357.97H357.275V3Z" fill="white"/>
</mask>
<g mask="url(#mask62_10_24739)">
<path d="M71.6145 293.638L37.9189 342.883" stroke="black" stroke-width="0.666667" stroke-linecap="square"/>
</g>
<mask id="mask63_10_24739" style="mask-type:luminance" maskUnits="userSpaceOnUse" x="0" y="3" width="358" height="355">
<path d="M357.275 3H0V357.97H357.275V3Z" fill="white"/>
</mask>
<g mask="url(#mask63_10_24739)">
<path d="M79.7347 299.538L55.0459 342.883" stroke="black" stroke-width="0.666667" stroke-linecap="square"/>
</g>
<mask id="mask64_10_24739" style="mask-type:luminance" maskUnits="userSpaceOnUse" x="0" y="3" width="358" height="355">
<path d="M357.275 3H0V357.97H357.275V3Z" fill="white"/>
</mask>
<g mask="url(#mask64_10_24739)">
<path d="M87.8546 305.437L70.5923 342.883" stroke="black" stroke-width="0.666667" stroke-linecap="square"/>
</g>
<mask id="mask65_10_24739" style="mask-type:luminance" maskUnits="userSpaceOnUse" x="0" y="3" width="358" height="355">
<path d="M357.275 3H0V357.97H357.275V3Z" fill="white"/>
</mask>
<g mask="url(#mask65_10_24739)">
<path d="M95.9741 311.337L84.877 342.883" stroke="black" stroke-width="0.666667" stroke-linecap="square"/>
</g>
<mask id="mask66_10_24739" style="mask-type:luminance" maskUnits="userSpaceOnUse" x="0" y="3" width="358" height="355">
<path d="M357.275 3H0V357.97H357.275V3Z" fill="white"/>
</mask>
<g mask="url(#mask66_10_24739)">
<path d="M104.094 317.236L98.1509 342.883" stroke="black" stroke-width="0.666667" stroke-linecap="square"/>
</g>
<mask id="mask67_10_24739" style="mask-type:luminance" maskUnits="userSpaceOnUse" x="0" y="3" width="358" height="355">
<path d="M357.275 3H0V357.97H357.275V3Z" fill="white"/>
</mask>
<g mask="url(#mask67_10_24739)">
<path d="M112.214 323.135L110.614 342.883" stroke="black" stroke-width="0.666667" stroke-linecap="square"/>
</g>
<mask id="mask68_10_24739" style="mask-type:luminance" maskUnits="userSpaceOnUse" x="0" y="3" width="358" height="355">
<path d="M357.275 3H0V357.97H357.275V3Z" fill="white"/>
</mask>
<g mask="url(#mask68_10_24739)">
<path d="M120.334 329.035L122.431 342.883" stroke="black" stroke-width="0.666667" stroke-linecap="square"/>
</g>
<mask id="mask69_10_24739" style="mask-type:luminance" maskUnits="userSpaceOnUse" x="0" y="3" width="358" height="355">
<path d="M357.275 3H0V357.97H357.275V3Z" fill="white"/>
</mask>
<g mask="url(#mask69_10_24739)">
<path d="M128.454 334.934L133.739 342.883" stroke="black" stroke-width="0.666667" stroke-linecap="square"/>
</g>
<mask id="mask70_10_24739" style="mask-type:luminance" maskUnits="userSpaceOnUse" x="0" y="3" width="358" height="355">
<path d="M357.275 3H0V357.97H357.275V3Z" fill="white"/>
</mask>
<g mask="url(#mask70_10_24739)">
<path d="M138.491 334.934L144.657 342.883" stroke="black" stroke-width="0.666667" stroke-linecap="square"/>
</g>
<mask id="mask71_10_24739" style="mask-type:luminance" maskUnits="userSpaceOnUse" x="0" y="3" width="358" height="355">
<path d="M357.275 3H0V357.97H357.275V3Z" fill="white"/>
</mask>
<g mask="url(#mask71_10_24739)">
<path d="M148.527 334.934L155.288 342.883" stroke="black" stroke-width="0.666667" stroke-linecap="square"/>
</g>
<mask id="mask72_10_24739" style="mask-type:luminance" maskUnits="userSpaceOnUse" x="0" y="3" width="358" height="355">
<path d="M357.275 3H0V357.97H357.275V3Z" fill="white"/>
</mask>
<g mask="url(#mask72_10_24739)">
<path d="M158.564 334.934L165.727 342.883" stroke="black" stroke-width="0.666667" stroke-linecap="square"/>
</g>
<mask id="mask73_10_24739" style="mask-type:luminance" maskUnits="userSpaceOnUse" x="0" y="3" width="358" height="355">
<path d="M357.275 3H0V357.97H357.275V3Z" fill="white"/>
</mask>
<g mask="url(#mask73_10_24739)">
<path d="M168.601 334.934L176.06 342.883" stroke="black" stroke-width="0.666667" stroke-linecap="square"/>
</g>
<mask id="mask74_10_24739" style="mask-type:luminance" maskUnits="userSpaceOnUse" x="0" y="3" width="358" height="355">
<path d="M357.275 3H0V357.97H357.275V3Z" fill="white"/>
</mask>
<g mask="url(#mask74_10_24739)">
<path d="M178.638 334.934L186.374 342.883" stroke="black" stroke-width="0.666667" stroke-linecap="square"/>
</g>
<mask id="mask75_10_24739" style="mask-type:luminance" maskUnits="userSpaceOnUse" x="0" y="3" width="358" height="355">
<path d="M357.275 3H0V357.97H357.275V3Z" fill="white"/>
</mask>
<g mask="url(#mask75_10_24739)">
<path d="M188.674 334.934L196.749 342.883" stroke="black" stroke-width="0.666667" stroke-linecap="square"/>
</g>
<mask id="mask76_10_24739" style="mask-type:luminance" maskUnits="userSpaceOnUse" x="0" y="3" width="358" height="355">
<path d="M357.275 3H0V357.97H357.275V3Z" fill="white"/>
</mask>
<g mask="url(#mask76_10_24739)">
<path d="M198.711 334.934L207.273 342.883" stroke="black" stroke-width="0.666667" stroke-linecap="square"/>
</g>
<mask id="mask77_10_24739" style="mask-type:luminance" maskUnits="userSpaceOnUse" x="0" y="3" width="358" height="355">
<path d="M357.275 3H0V357.97H357.275V3Z" fill="white"/>
</mask>
<g mask="url(#mask77_10_24739)">
<path d="M208.748 334.934L218.035 342.883" stroke="black" stroke-width="0.666667" stroke-linecap="square"/>
</g>
<mask id="mask78_10_24739" style="mask-type:luminance" maskUnits="userSpaceOnUse" x="0" y="3" width="358" height="355">
<path d="M357.275 3H0V357.97H357.275V3Z" fill="white"/>
</mask>
<g mask="url(#mask78_10_24739)">
<path d="M218.785 334.934L229.134 342.883" stroke="black" stroke-width="0.666667" stroke-linecap="square"/>
</g>
<mask id="mask79_10_24739" style="mask-type:luminance" maskUnits="userSpaceOnUse" x="0" y="3" width="358" height="355">
<path d="M357.275 3H0V357.97H357.275V3Z" fill="white"/>
</mask>
<g mask="url(#mask79_10_24739)">
<path d="M228.821 334.934L240.681 342.883" stroke="black" stroke-width="0.666667" stroke-linecap="square"/>
</g>
<mask id="mask80_10_24739" style="mask-type:luminance" maskUnits="userSpaceOnUse" x="0" y="3" width="358" height="355">
<path d="M357.275 3H0V357.97H357.275V3Z" fill="white"/>
</mask>
<g mask="url(#mask80_10_24739)">
<path d="M236.941 329.035L252.802 342.883" stroke="black" stroke-width="0.666667" stroke-linecap="square"/>
</g>
<mask id="mask81_10_24739" style="mask-type:luminance" maskUnits="userSpaceOnUse" x="0" y="3" width="358" height="355">
<path d="M357.275 3H0V357.97H357.275V3Z" fill="white"/>
</mask>
<g mask="url(#mask81_10_24739)">
<path d="M245.061 323.135L265.648 342.883" stroke="black" stroke-width="0.666667" stroke-linecap="square"/>
</g>
<mask id="mask82_10_24739" style="mask-type:luminance" maskUnits="userSpaceOnUse" x="0" y="3" width="358" height="355">
<path d="M357.275 3H0V357.97H357.275V3Z" fill="white"/>
</mask>
<g mask="url(#mask82_10_24739)">
<path d="M253.181 317.236L279.4 342.883" stroke="black" stroke-width="0.666667" stroke-linecap="square"/>
</g>
<mask id="mask83_10_24739" style="mask-type:luminance" maskUnits="userSpaceOnUse" x="0" y="3" width="358" height="355">
<path d="M357.275 3H0V357.97H357.275V3Z" fill="white"/>
</mask>
<g mask="url(#mask83_10_24739)">
<path d="M261.301 311.337L294.281 342.883" stroke="black" stroke-width="0.666667" stroke-linecap="square"/>
</g>
<mask id="mask84_10_24739" style="mask-type:luminance" maskUnits="userSpaceOnUse" x="0" y="3" width="358" height="355">
<path d="M357.275 3H0V357.97H357.275V3Z" fill="white"/>
</mask>
<g mask="url(#mask84_10_24739)">
<path d="M269.42 305.437L310.572 342.883" stroke="black" stroke-width="0.666667" stroke-linecap="square"/>
</g>
<mask id="mask85_10_24739" style="mask-type:luminance" maskUnits="userSpaceOnUse" x="0" y="3" width="358" height="355">
<path d="M357.275 3H0V357.97H357.275V3Z" fill="white"/>
</mask>
<g mask="url(#mask85_10_24739)">
<path d="M277.541 299.538L328.637 342.883" stroke="black" stroke-width="0.666667" stroke-linecap="square"/>
</g>
<mask id="mask86_10_24739" style="mask-type:luminance" maskUnits="userSpaceOnUse" x="0" y="3" width="358" height="355">
<path d="M357.275 3H0V357.97H357.275V3Z" fill="white"/>
</mask>
<g mask="url(#mask86_10_24739)">
<path d="M285.66 293.638L341.035 335.331" stroke="black" stroke-width="0.666667" stroke-linecap="square"/>
</g>
<mask id="mask87_10_24739" style="mask-type:luminance" maskUnits="userSpaceOnUse" x="0" y="3" width="358" height="355">
<path d="M357.275 3H0V357.97H357.275V3Z" fill="white"/>
</mask>
<g mask="url(#mask87_10_24739)">
<path d="M293.78 287.739L341.035 316.753" stroke="black" stroke-width="0.666667" stroke-linecap="square"/>
</g>
<mask id="mask88_10_24739" style="mask-type:luminance" maskUnits="userSpaceOnUse" x="0" y="3" width="358" height="355">
<path d="M357.275 3H0V357.97H357.275V3Z" fill="white"/>
</mask>
<g mask="url(#mask88_10_24739)">
<path d="M301.9 281.839L341.035 300.056" stroke="black" stroke-width="0.666667" stroke-linecap="square"/>
</g>
<mask id="mask89_10_24739" style="mask-type:luminance" maskUnits="userSpaceOnUse" x="0" y="3" width="358" height="355">
<path d="M357.275 3H0V357.97H357.275V3Z" fill="white"/>
</mask>
<g mask="url(#mask89_10_24739)">
<path d="M310.02 275.94L341.035 284.852" stroke="black" stroke-width="0.666667" stroke-linecap="square"/>
</g>
<mask id="mask90_10_24739" style="mask-type:luminance" maskUnits="userSpaceOnUse" x="0" y="3" width="358" height="355">
<path d="M357.275 3H0V357.97H357.275V3Z" fill="white"/>
</mask>
<g mask="url(#mask90_10_24739)">
<path d="M313.122 266.395L341.035 270.841" stroke="black" stroke-width="0.666667" stroke-linecap="square"/>
</g>
<mask id="mask91_10_24739" style="mask-type:luminance" maskUnits="userSpaceOnUse" x="0" y="3" width="358" height="355">
<path d="M357.275 3H0V357.97H357.275V3Z" fill="white"/>
</mask>
<g mask="url(#mask91_10_24739)">
<path d="M316.223 256.849L341.035 257.787" stroke="black" stroke-width="0.666667" stroke-linecap="square"/>
</g>
<mask id="mask92_10_24739" style="mask-type:luminance" maskUnits="userSpaceOnUse" x="0" y="3" width="358" height="355">
<path d="M357.275 3H0V357.97H357.275V3Z" fill="white"/>
</mask>
<g mask="url(#mask92_10_24739)">
<path d="M319.325 247.304L341.035 245.499" stroke="black" stroke-width="0.666667" stroke-linecap="square"/>
</g>
<mask id="mask93_10_24739" style="mask-type:luminance" maskUnits="userSpaceOnUse" x="0" y="3" width="358" height="355">
<path d="M357.275 3H0V357.97H357.275V3Z" fill="white"/>
</mask>
<g mask="url(#mask93_10_24739)">
<path d="M322.426 237.758L341.035 233.822" stroke="black" stroke-width="0.666667" stroke-linecap="square"/>
</g>
<mask id="mask94_10_24739" style="mask-type:luminance" maskUnits="userSpaceOnUse" x="0" y="3" width="358" height="355">
<path d="M357.275 3H0V357.97H357.275V3Z" fill="white"/>
</mask>
<g mask="url(#mask94_10_24739)">
<path d="M325.528 228.212L341.035 222.621" stroke="black" stroke-width="0.666667" stroke-linecap="square"/>
</g>
<mask id="mask95_10_24739" style="mask-type:luminance" maskUnits="userSpaceOnUse" x="0" y="3" width="358" height="355">
<path d="M357.275 3H0V357.97H357.275V3Z" fill="white"/>
</mask>
<g mask="url(#mask95_10_24739)">
<path d="M328.629 218.667L341.035 211.785" stroke="black" stroke-width="0.666667" stroke-linecap="square"/>
</g>
<mask id="mask96_10_24739" style="mask-type:luminance" maskUnits="userSpaceOnUse" x="0" y="3" width="358" height="355">
<path d="M357.275 3H0V357.97H357.275V3Z" fill="white"/>
</mask>
<g mask="url(#mask96_10_24739)">
<path d="M331.73 209.121L341.035 201.21" stroke="black" stroke-width="0.666667" stroke-linecap="square"/>
</g>
<mask id="mask97_10_24739" style="mask-type:luminance" maskUnits="userSpaceOnUse" x="0" y="3" width="358" height="355">
<path d="M357.275 3H0V357.97H357.275V3Z" fill="white"/>
</mask>
<g mask="url(#mask97_10_24739)">
<path d="M334.832 199.576L341.035 190.806" stroke="black" stroke-width="0.666667" stroke-linecap="square"/>
</g>
<mask id="mask98_10_24739" style="mask-type:luminance" maskUnits="userSpaceOnUse" x="0" y="3" width="358" height="355">
<path d="M357.275 3H0V357.97H357.275V3Z" fill="white"/>
</mask>
<g mask="url(#mask98_10_24739)">
<path d="M337.934 190.03L341.035 180.485" stroke="black" stroke-width="0.666667" stroke-linecap="square"/>
</g>
<path d="M15 179.5L46.4167 82.8093L128.667 23.0512H230.333L312.583 82.8093L344 179.5L312.583 276.191L230.333 335.949H128.667L46.4167 276.191L15 179.5Z" fill="#E8C9BF" stroke="black" stroke-width="12" stroke-dasharray="10 4"/>
<path d="M181.372 251C175.372 254.45 168.922 257.225 162.022 259.325C155.272 261.275 148.072 262.25 140.422 262.25C129.322 262.25 118.897 260.15 109.147 255.95C99.3972 251.75 90.9222 245.975 83.7222 238.625C76.3722 231.425 70.5972 222.95 66.3972 213.2C62.1972 203.45 60.0972 193.025 60.0972 181.925C60.0972 170.825 62.1972 160.4 66.3972 150.65C70.5972 140.75 76.3722 132.125 83.7222 124.775C90.9222 117.575 99.3972 111.875 109.147 107.675C118.897 103.325 129.322 101.15 140.422 101.15C148.072 101.15 155.272 102.125 162.022 104.075C168.922 106.025 175.447 108.8 181.597 112.4L171.247 127.475C166.597 124.775 161.722 122.675 156.622 121.175C151.522 119.675 146.122 118.925 140.422 118.925C131.872 118.925 123.847 120.575 116.347 123.875C108.997 127.175 102.547 131.675 96.9972 137.375C91.2972 143.225 86.7972 149.975 83.4972 157.625C80.3472 165.275 78.7722 173.375 78.7722 181.925C78.7722 190.475 80.3472 198.575 83.4972 206.225C86.7972 213.875 91.2972 220.475 96.9972 226.025C102.547 231.725 108.997 236.225 116.347 239.525C123.847 242.825 131.872 244.475 140.422 244.475C144.322 244.475 148.147 244.175 151.897 243.575C155.647 242.825 159.247 241.775 162.697 240.425V210.725H139.522V192.95H181.372V251ZM278.882 250.1C274.532 253.85 269.507 256.775 263.807 258.875C258.107 260.825 252.107 261.8 245.807 261.8C240.107 261.8 234.557 261.2 229.157 260C223.757 258.65 218.807 256.925 214.307 254.825C209.807 252.725 205.757 250.325 202.157 247.625C198.707 244.925 196.007 242.075 194.057 239.075V212.975H211.832V233C215.732 236 220.382 238.625 225.782 240.875C231.182 242.975 237.257 244.025 244.007 244.025C247.907 244.025 251.657 243.5 255.257 242.45C258.857 241.25 262.082 239.6 264.932 237.5C267.632 235.25 269.807 232.475 271.457 229.175C273.107 225.875 273.932 222.05 273.932 217.7C273.932 215 273.707 212.3 273.257 209.6C272.957 206.9 272.207 204.575 271.007 202.625C269.057 199.475 266.732 197 264.032 195.2C261.482 193.25 258.482 191.45 255.032 189.8C249.632 187.55 243.782 185.6 237.482 183.95C231.182 182.3 225.332 180.05 219.932 177.2C214.382 174.35 209.732 170.375 205.982 165.275C202.382 160.175 200.507 152.975 200.357 143.675C200.207 138.725 200.882 133.775 202.382 128.825C203.882 123.875 206.357 119.375 209.807 115.325C213.257 111.275 217.832 107.975 223.532 105.425C229.232 102.875 236.207 101.6 244.457 101.6C247.157 101.6 250.082 101.75 253.232 102.05C256.382 102.35 259.682 102.95 263.132 103.85C266.582 104.75 270.107 106.1 273.707 107.9C277.457 109.7 281.132 112.1 284.732 115.1V137.15H266.957V123.875C264.107 122.675 260.807 121.625 257.057 120.725C253.307 119.825 249.182 119.375 244.682 119.375C240.182 119.375 236.282 120.125 232.982 121.625C229.682 122.975 226.982 124.85 224.882 127.25C222.932 129.5 221.432 132.125 220.382 135.125C219.482 137.975 219.032 141.05 219.032 144.35C219.032 148.85 220.082 152.525 222.182 155.375C224.282 158.075 227.057 160.4 230.507 162.35C235.907 165.2 242.357 167.75 249.857 170C257.357 172.1 264.557 174.8 271.457 178.1C277.757 181.1 282.857 185.75 286.757 192.05C290.657 198.35 292.607 206.975 292.607 217.925C292.607 224.675 291.332 230.75 288.782 236.15C286.382 241.55 283.082 246.2 278.882 250.1Z" fill="black"/>
</svg>
