<svg width="358" height="355" viewBox="0 0 358 355" fill="none" xmlns="http://www.w3.org/2000/svg">
<rect x="15.335" y="12.335" width="328.33" height="328.33" fill="#F5F5F5" stroke="#F5F5F5" stroke-width="2.67"/>
<rect x="16.335" y="13.335" width="326.33" height="326.33" fill="#E1E1F6" stroke="black" stroke-width="2.67"/>
<mask id="mask0_10_23231" style="mask-type:luminance" maskUnits="userSpaceOnUse" x="0" y="0" width="358" height="355">
<path d="M357.275 0H0V354.97H357.275V0Z" fill="white"/>
</mask>
<g mask="url(#mask0_10_23231)">
<path d="M337.934 167.939L341.035 167.164" stroke="black" stroke-width="0.666667" stroke-linecap="square"/>
</g>
<mask id="mask1_10_23231" style="mask-type:luminance" maskUnits="userSpaceOnUse" x="0" y="0" width="358" height="355">
<path d="M357.275 0H0V354.97H357.275V0Z" fill="white"/>
</mask>
<g mask="url(#mask1_10_23231)">
<path d="M334.832 158.394L341.035 156.76" stroke="black" stroke-width="0.666667" stroke-linecap="square"/>
</g>
<mask id="mask2_10_23231" style="mask-type:luminance" maskUnits="userSpaceOnUse" x="0" y="0" width="358" height="355">
<path d="M357.275 0H0V354.97H357.275V0Z" fill="white"/>
</mask>
<g mask="url(#mask2_10_23231)">
<path d="M331.73 148.849L341.035 146.185" stroke="black" stroke-width="0.666667" stroke-linecap="square"/>
</g>
<mask id="mask3_10_23231" style="mask-type:luminance" maskUnits="userSpaceOnUse" x="0" y="0" width="358" height="355">
<path d="M357.275 0H0V354.97H357.275V0Z" fill="white"/>
</mask>
<g mask="url(#mask3_10_23231)">
<path d="M328.629 139.303L341.035 135.349" stroke="black" stroke-width="0.666667" stroke-linecap="square"/>
</g>
<mask id="mask4_10_23231" style="mask-type:luminance" maskUnits="userSpaceOnUse" x="0" y="0" width="358" height="355">
<path d="M357.275 0H0V354.97H357.275V0Z" fill="white"/>
</mask>
<g mask="url(#mask4_10_23231)">
<path d="M325.528 129.758L341.035 124.148" stroke="black" stroke-width="0.666667" stroke-linecap="square"/>
</g>
<mask id="mask5_10_23231" style="mask-type:luminance" maskUnits="userSpaceOnUse" x="0" y="0" width="358" height="355">
<path d="M357.275 0H0V354.97H357.275V0Z" fill="white"/>
</mask>
<g mask="url(#mask5_10_23231)">
<path d="M322.426 120.212L341.035 112.471" stroke="black" stroke-width="0.666667" stroke-linecap="square"/>
</g>
<mask id="mask6_10_23231" style="mask-type:luminance" maskUnits="userSpaceOnUse" x="0" y="0" width="358" height="355">
<path d="M357.275 0H0V354.97H357.275V0Z" fill="white"/>
</mask>
<g mask="url(#mask6_10_23231)">
<path d="M319.325 110.667L341.035 100.183" stroke="black" stroke-width="0.666667" stroke-linecap="square"/>
</g>
<mask id="mask7_10_23231" style="mask-type:luminance" maskUnits="userSpaceOnUse" x="0" y="0" width="358" height="355">
<path d="M357.275 0H0V354.97H357.275V0Z" fill="white"/>
</mask>
<g mask="url(#mask7_10_23231)">
<path d="M316.223 101.121L341.035 87.1293" stroke="black" stroke-width="0.666667" stroke-linecap="square"/>
</g>
<mask id="mask8_10_23231" style="mask-type:luminance" maskUnits="userSpaceOnUse" x="0" y="0" width="358" height="355">
<path d="M357.275 0H0V354.97H357.275V0Z" fill="white"/>
</mask>
<g mask="url(#mask8_10_23231)">
<path d="M313.122 91.5755L341.035 73.1183" stroke="black" stroke-width="0.666667" stroke-linecap="square"/>
</g>
<mask id="mask9_10_23231" style="mask-type:luminance" maskUnits="userSpaceOnUse" x="0" y="0" width="358" height="355">
<path d="M357.275 0H0V354.97H357.275V0Z" fill="white"/>
</mask>
<g mask="url(#mask9_10_23231)">
<path d="M310.02 82.03L341.035 57.9141" stroke="black" stroke-width="0.666667" stroke-linecap="square"/>
</g>
<mask id="mask10_10_23231" style="mask-type:luminance" maskUnits="userSpaceOnUse" x="0" y="0" width="358" height="355">
<path d="M357.275 0H0V354.97H357.275V0Z" fill="white"/>
</mask>
<g mask="url(#mask10_10_23231)">
<path d="M301.9 76.1306L341.035 41.2172" stroke="black" stroke-width="0.666667" stroke-linecap="square"/>
</g>
<mask id="mask11_10_23231" style="mask-type:luminance" maskUnits="userSpaceOnUse" x="0" y="0" width="358" height="355">
<path d="M357.275 0H0V354.97H357.275V0Z" fill="white"/>
</mask>
<g mask="url(#mask11_10_23231)">
<path d="M293.78 70.2311L341.035 22.639" stroke="black" stroke-width="0.666667" stroke-linecap="square"/>
</g>
<mask id="mask12_10_23231" style="mask-type:luminance" maskUnits="userSpaceOnUse" x="0" y="0" width="358" height="355">
<path d="M357.275 0H0V354.97H357.275V0Z" fill="white"/>
</mask>
<g mask="url(#mask12_10_23231)">
<path d="M285.66 64.3317L328.637 15.0873" stroke="black" stroke-width="0.666667" stroke-linecap="square"/>
</g>
<mask id="mask13_10_23231" style="mask-type:luminance" maskUnits="userSpaceOnUse" x="0" y="0" width="358" height="355">
<path d="M357.275 0H0V354.97H357.275V0Z" fill="white"/>
</mask>
<g mask="url(#mask13_10_23231)">
<path d="M277.541 58.4323L310.572 15.0873" stroke="black" stroke-width="0.666667" stroke-linecap="square"/>
</g>
<mask id="mask14_10_23231" style="mask-type:luminance" maskUnits="userSpaceOnUse" x="0" y="0" width="358" height="355">
<path d="M357.275 0H0V354.97H357.275V0Z" fill="white"/>
</mask>
<g mask="url(#mask14_10_23231)">
<path d="M269.42 52.5328L294.28 15.0873" stroke="black" stroke-width="0.666667" stroke-linecap="square"/>
</g>
<mask id="mask15_10_23231" style="mask-type:luminance" maskUnits="userSpaceOnUse" x="0" y="0" width="358" height="355">
<path d="M357.275 0H0V354.97H357.275V0Z" fill="white"/>
</mask>
<g mask="url(#mask15_10_23231)">
<path d="M261.301 46.6334L279.4 15.0873" stroke="black" stroke-width="0.666667" stroke-linecap="square"/>
</g>
<mask id="mask16_10_23231" style="mask-type:luminance" maskUnits="userSpaceOnUse" x="0" y="0" width="358" height="355">
<path d="M357.275 0H0V354.97H357.275V0Z" fill="white"/>
</mask>
<g mask="url(#mask16_10_23231)">
<path d="M253.181 40.7339L265.648 15.0873" stroke="black" stroke-width="0.666667" stroke-linecap="square"/>
</g>
<mask id="mask17_10_23231" style="mask-type:luminance" maskUnits="userSpaceOnUse" x="0" y="0" width="358" height="355">
<path d="M357.275 0H0V354.97H357.275V0Z" fill="white"/>
</mask>
<g mask="url(#mask17_10_23231)">
<path d="M245.061 34.8345L252.802 15.0873" stroke="black" stroke-width="0.666667" stroke-linecap="square"/>
</g>
<mask id="mask18_10_23231" style="mask-type:luminance" maskUnits="userSpaceOnUse" x="0" y="0" width="358" height="355">
<path d="M357.275 0H0V354.97H357.275V0Z" fill="white"/>
</mask>
<g mask="url(#mask18_10_23231)">
<path d="M236.941 28.935L240.681 15.0873" stroke="black" stroke-width="0.666667" stroke-linecap="square"/>
</g>
<mask id="mask19_10_23231" style="mask-type:luminance" maskUnits="userSpaceOnUse" x="0" y="0" width="358" height="355">
<path d="M357.275 0H0V354.97H357.275V0Z" fill="white"/>
</mask>
<g mask="url(#mask19_10_23231)">
<path d="M228.821 23.0356L229.134 15.0873" stroke="black" stroke-width="0.666667" stroke-linecap="square"/>
</g>
<mask id="mask20_10_23231" style="mask-type:luminance" maskUnits="userSpaceOnUse" x="0" y="0" width="358" height="355">
<path d="M357.275 0H0V354.97H357.275V0Z" fill="white"/>
</mask>
<g mask="url(#mask20_10_23231)">
<path d="M218.784 23.0356L218.035 15.0873" stroke="black" stroke-width="0.666667" stroke-linecap="square"/>
</g>
<mask id="mask21_10_23231" style="mask-type:luminance" maskUnits="userSpaceOnUse" x="0" y="0" width="358" height="355">
<path d="M357.275 0H0V354.97H357.275V0Z" fill="white"/>
</mask>
<g mask="url(#mask21_10_23231)">
<path d="M208.748 23.0356L207.272 15.0873" stroke="black" stroke-width="0.666667" stroke-linecap="square"/>
</g>
<mask id="mask22_10_23231" style="mask-type:luminance" maskUnits="userSpaceOnUse" x="0" y="0" width="358" height="355">
<path d="M357.275 0H0V354.97H357.275V0Z" fill="white"/>
</mask>
<g mask="url(#mask22_10_23231)">
<path d="M198.711 23.0356L196.749 15.0873" stroke="black" stroke-width="0.666667" stroke-linecap="square"/>
</g>
<mask id="mask23_10_23231" style="mask-type:luminance" maskUnits="userSpaceOnUse" x="0" y="0" width="358" height="355">
<path d="M357.275 0H0V354.97H357.275V0Z" fill="white"/>
</mask>
<g mask="url(#mask23_10_23231)">
<path d="M188.674 23.0356L186.374 15.0873" stroke="black" stroke-width="0.666667" stroke-linecap="square"/>
</g>
<mask id="mask24_10_23231" style="mask-type:luminance" maskUnits="userSpaceOnUse" x="0" y="0" width="358" height="355">
<path d="M357.275 0H0V354.97H357.275V0Z" fill="white"/>
</mask>
<g mask="url(#mask24_10_23231)">
<path d="M178.637 23.0356L176.061 15.0873" stroke="black" stroke-width="0.666667" stroke-linecap="square"/>
</g>
<mask id="mask25_10_23231" style="mask-type:luminance" maskUnits="userSpaceOnUse" x="0" y="0" width="358" height="355">
<path d="M357.275 0H0V354.97H357.275V0Z" fill="white"/>
</mask>
<g mask="url(#mask25_10_23231)">
<path d="M168.601 23.0356L165.727 15.0873" stroke="black" stroke-width="0.666667" stroke-linecap="square"/>
</g>
<mask id="mask26_10_23231" style="mask-type:luminance" maskUnits="userSpaceOnUse" x="0" y="0" width="358" height="355">
<path d="M357.275 0H0V354.97H357.275V0Z" fill="white"/>
</mask>
<g mask="url(#mask26_10_23231)">
<path d="M158.564 23.0356L155.288 15.0873" stroke="black" stroke-width="0.666667" stroke-linecap="square"/>
</g>
<mask id="mask27_10_23231" style="mask-type:luminance" maskUnits="userSpaceOnUse" x="0" y="0" width="358" height="355">
<path d="M357.275 0H0V354.97H357.275V0Z" fill="white"/>
</mask>
<g mask="url(#mask27_10_23231)">
<path d="M148.527 23.0356L144.657 15.0873" stroke="black" stroke-width="0.666667" stroke-linecap="square"/>
</g>
<mask id="mask28_10_23231" style="mask-type:luminance" maskUnits="userSpaceOnUse" x="0" y="0" width="358" height="355">
<path d="M357.275 0H0V354.97H357.275V0Z" fill="white"/>
</mask>
<g mask="url(#mask28_10_23231)">
<path d="M138.49 23.0356L133.739 15.0873" stroke="black" stroke-width="0.666667" stroke-linecap="square"/>
</g>
<mask id="mask29_10_23231" style="mask-type:luminance" maskUnits="userSpaceOnUse" x="0" y="0" width="358" height="355">
<path d="M357.275 0H0V354.97H357.275V0Z" fill="white"/>
</mask>
<g mask="url(#mask29_10_23231)">
<path d="M128.454 23.0356L122.431 15.0873" stroke="black" stroke-width="0.666667" stroke-linecap="square"/>
</g>
<mask id="mask30_10_23231" style="mask-type:luminance" maskUnits="userSpaceOnUse" x="0" y="0" width="358" height="355">
<path d="M357.275 0H0V354.97H357.275V0Z" fill="white"/>
</mask>
<g mask="url(#mask30_10_23231)">
<path d="M120.334 28.9351L110.614 15.0873" stroke="black" stroke-width="0.666667" stroke-linecap="square"/>
</g>
<mask id="mask31_10_23231" style="mask-type:luminance" maskUnits="userSpaceOnUse" x="0" y="0" width="358" height="355">
<path d="M357.275 0H0V354.97H357.275V0Z" fill="white"/>
</mask>
<g mask="url(#mask31_10_23231)">
<path d="M112.214 34.8345L98.1509 15.0873" stroke="black" stroke-width="0.666667" stroke-linecap="square"/>
</g>
<mask id="mask32_10_23231" style="mask-type:luminance" maskUnits="userSpaceOnUse" x="0" y="0" width="358" height="355">
<path d="M357.275 0H0V354.97H357.275V0Z" fill="white"/>
</mask>
<g mask="url(#mask32_10_23231)">
<path d="M104.094 40.7339L84.877 15.0873" stroke="black" stroke-width="0.666667" stroke-linecap="square"/>
</g>
<mask id="mask33_10_23231" style="mask-type:luminance" maskUnits="userSpaceOnUse" x="0" y="0" width="358" height="355">
<path d="M357.275 0H0V354.97H357.275V0Z" fill="white"/>
</mask>
<g mask="url(#mask33_10_23231)">
<path d="M95.9745 46.6334L70.5923 15.0873" stroke="black" stroke-width="0.666667" stroke-linecap="square"/>
</g>
<mask id="mask34_10_23231" style="mask-type:luminance" maskUnits="userSpaceOnUse" x="0" y="0" width="358" height="355">
<path d="M357.275 0H0V354.97H357.275V0Z" fill="white"/>
</mask>
<g mask="url(#mask34_10_23231)">
<path d="M87.8546 52.5328L55.0459 15.0873" stroke="black" stroke-width="0.666667" stroke-linecap="square"/>
</g>
<mask id="mask35_10_23231" style="mask-type:luminance" maskUnits="userSpaceOnUse" x="0" y="0" width="358" height="355">
<path d="M357.275 0H0V354.97H357.275V0Z" fill="white"/>
</mask>
<g mask="url(#mask35_10_23231)">
<path d="M79.7344 58.4323L37.9189 15.0873" stroke="black" stroke-width="0.666667" stroke-linecap="square"/>
</g>
<mask id="mask36_10_23231" style="mask-type:luminance" maskUnits="userSpaceOnUse" x="0" y="0" width="358" height="355">
<path d="M357.275 0H0V354.97H357.275V0Z" fill="white"/>
</mask>
<g mask="url(#mask36_10_23231)">
<path d="M71.6148 64.3317L18.7964 15.0873" stroke="black" stroke-width="0.666667" stroke-linecap="square"/>
</g>
<mask id="mask37_10_23231" style="mask-type:luminance" maskUnits="userSpaceOnUse" x="0" y="0" width="358" height="355">
<path d="M357.275 0H0V354.97H357.275V0Z" fill="white"/>
</mask>
<g mask="url(#mask37_10_23231)">
<path d="M63.4947 70.2311L16.2397 32.1919" stroke="black" stroke-width="0.666667" stroke-linecap="square"/>
</g>
<mask id="mask38_10_23231" style="mask-type:luminance" maskUnits="userSpaceOnUse" x="0" y="0" width="358" height="355">
<path d="M357.275 0H0V354.97H357.275V0Z" fill="white"/>
</mask>
<g mask="url(#mask38_10_23231)">
<path d="M55.3748 76.1306L16.2397 49.774" stroke="black" stroke-width="0.666667" stroke-linecap="square"/>
</g>
<mask id="mask39_10_23231" style="mask-type:luminance" maskUnits="userSpaceOnUse" x="0" y="0" width="358" height="355">
<path d="M357.275 0H0V354.97H357.275V0Z" fill="white"/>
</mask>
<g mask="url(#mask39_10_23231)">
<path d="M47.2549 82.03L16.2397 65.6824" stroke="black" stroke-width="0.666667" stroke-linecap="square"/>
</g>
<mask id="mask40_10_23231" style="mask-type:luminance" maskUnits="userSpaceOnUse" x="0" y="0" width="358" height="355">
<path d="M357.275 0H0V354.97H357.275V0Z" fill="white"/>
</mask>
<g mask="url(#mask40_10_23231)">
<path d="M44.1534 91.5755L16.2397 80.257" stroke="black" stroke-width="0.666667" stroke-linecap="square"/>
</g>
<mask id="mask41_10_23231" style="mask-type:luminance" maskUnits="userSpaceOnUse" x="0" y="0" width="358" height="355">
<path d="M357.275 0H0V354.97H357.275V0Z" fill="white"/>
</mask>
<g mask="url(#mask41_10_23231)">
<path d="M41.0519 101.121L16.2397 93.7632" stroke="black" stroke-width="0.666667" stroke-linecap="square"/>
</g>
<mask id="mask42_10_23231" style="mask-type:luminance" maskUnits="userSpaceOnUse" x="0" y="0" width="358" height="355">
<path d="M357.275 0H0V354.97H357.275V0Z" fill="white"/>
</mask>
<g mask="url(#mask42_10_23231)">
<path d="M37.9504 110.667L16.2397 106.412" stroke="black" stroke-width="0.666667" stroke-linecap="square"/>
</g>
<mask id="mask43_10_23231" style="mask-type:luminance" maskUnits="userSpaceOnUse" x="0" y="0" width="358" height="355">
<path d="M357.275 0H0V354.97H357.275V0Z" fill="white"/>
</mask>
<g mask="url(#mask43_10_23231)">
<path d="M34.8489 120.212L16.2397 118.377" stroke="black" stroke-width="0.666667" stroke-linecap="square"/>
</g>
<mask id="mask44_10_23231" style="mask-type:luminance" maskUnits="userSpaceOnUse" x="0" y="0" width="358" height="355">
<path d="M357.275 0H0V354.97H357.275V0Z" fill="white"/>
</mask>
<g mask="url(#mask44_10_23231)">
<path d="M31.7473 129.758L16.2397 129.801" stroke="black" stroke-width="0.666667" stroke-linecap="square"/>
</g>
<mask id="mask45_10_23231" style="mask-type:luminance" maskUnits="userSpaceOnUse" x="0" y="0" width="358" height="355">
<path d="M357.275 0H0V354.97H357.275V0Z" fill="white"/>
</mask>
<g mask="url(#mask45_10_23231)">
<path d="M28.6458 139.303L16.2397 140.806" stroke="black" stroke-width="0.666667" stroke-linecap="square"/>
</g>
<mask id="mask46_10_23231" style="mask-type:luminance" maskUnits="userSpaceOnUse" x="0" y="0" width="358" height="355">
<path d="M357.275 0H0V354.97H357.275V0Z" fill="white"/>
</mask>
<g mask="url(#mask46_10_23231)">
<path d="M25.5443 148.849L16.2397 151.5" stroke="black" stroke-width="0.666667" stroke-linecap="square"/>
</g>
<mask id="mask47_10_23231" style="mask-type:luminance" maskUnits="userSpaceOnUse" x="0" y="0" width="358" height="355">
<path d="M357.275 0H0V354.97H357.275V0Z" fill="white"/>
</mask>
<g mask="url(#mask47_10_23231)">
<path d="M22.4428 158.394L16.2397 161.978" stroke="black" stroke-width="0.666667" stroke-linecap="square"/>
</g>
<mask id="mask48_10_23231" style="mask-type:luminance" maskUnits="userSpaceOnUse" x="0" y="0" width="358" height="355">
<path d="M357.275 0H0V354.97H357.275V0Z" fill="white"/>
</mask>
<g mask="url(#mask48_10_23231)">
<path d="M19.3413 167.939L16.2397 172.33" stroke="black" stroke-width="0.666667" stroke-linecap="square"/>
</g>
<mask id="mask49_10_23231" style="mask-type:luminance" maskUnits="userSpaceOnUse" x="0" y="0" width="358" height="355">
<path d="M357.275 0H0V354.97H357.275V0Z" fill="white"/>
</mask>
<g mask="url(#mask49_10_23231)">
<path d="M16.2397 177.485V182.64" stroke="black" stroke-width="0.666667" stroke-linecap="square"/>
</g>
<mask id="mask50_10_23231" style="mask-type:luminance" maskUnits="userSpaceOnUse" x="0" y="0" width="358" height="355">
<path d="M357.275 0H0V354.97H357.275V0Z" fill="white"/>
</mask>
<g mask="url(#mask50_10_23231)">
<path d="M19.3413 187.031L16.2397 192.992" stroke="black" stroke-width="0.666667" stroke-linecap="square"/>
</g>
<mask id="mask51_10_23231" style="mask-type:luminance" maskUnits="userSpaceOnUse" x="0" y="0" width="358" height="355">
<path d="M357.275 0H0V354.97H357.275V0Z" fill="white"/>
</mask>
<g mask="url(#mask51_10_23231)">
<path d="M22.4428 196.576L16.2397 203.47" stroke="black" stroke-width="0.666667" stroke-linecap="square"/>
</g>
<mask id="mask52_10_23231" style="mask-type:luminance" maskUnits="userSpaceOnUse" x="0" y="0" width="358" height="355">
<path d="M357.275 0H0V354.97H357.275V0Z" fill="white"/>
</mask>
<g mask="url(#mask52_10_23231)">
<path d="M25.5443 206.121L16.2397 214.164" stroke="black" stroke-width="0.666667" stroke-linecap="square"/>
</g>
<mask id="mask53_10_23231" style="mask-type:luminance" maskUnits="userSpaceOnUse" x="0" y="0" width="358" height="355">
<path d="M357.275 0H0V354.97H357.275V0Z" fill="white"/>
</mask>
<g mask="url(#mask53_10_23231)">
<path d="M28.6458 215.667L16.2397 225.169" stroke="black" stroke-width="0.666667" stroke-linecap="square"/>
</g>
<mask id="mask54_10_23231" style="mask-type:luminance" maskUnits="userSpaceOnUse" x="0" y="0" width="358" height="355">
<path d="M357.275 0H0V354.97H357.275V0Z" fill="white"/>
</mask>
<g mask="url(#mask54_10_23231)">
<path d="M31.7473 225.212L16.2397 236.593" stroke="black" stroke-width="0.666667" stroke-linecap="square"/>
</g>
<mask id="mask55_10_23231" style="mask-type:luminance" maskUnits="userSpaceOnUse" x="0" y="0" width="358" height="355">
<path d="M357.275 0H0V354.97H357.275V0Z" fill="white"/>
</mask>
<g mask="url(#mask55_10_23231)">
<path d="M34.8489 234.758L16.2397 248.558" stroke="black" stroke-width="0.666667" stroke-linecap="square"/>
</g>
<mask id="mask56_10_23231" style="mask-type:luminance" maskUnits="userSpaceOnUse" x="0" y="0" width="358" height="355">
<path d="M357.275 0H0V354.97H357.275V0Z" fill="white"/>
</mask>
<g mask="url(#mask56_10_23231)">
<path d="M37.9504 244.303L16.2397 261.207" stroke="black" stroke-width="0.666667" stroke-linecap="square"/>
</g>
<mask id="mask57_10_23231" style="mask-type:luminance" maskUnits="userSpaceOnUse" x="0" y="0" width="358" height="355">
<path d="M357.275 0H0V354.97H357.275V0Z" fill="white"/>
</mask>
<g mask="url(#mask57_10_23231)">
<path d="M41.0519 253.849L16.2397 274.713" stroke="black" stroke-width="0.666667" stroke-linecap="square"/>
</g>
<mask id="mask58_10_23231" style="mask-type:luminance" maskUnits="userSpaceOnUse" x="0" y="0" width="358" height="355">
<path d="M357.275 0H0V354.97H357.275V0Z" fill="white"/>
</mask>
<g mask="url(#mask58_10_23231)">
<path d="M44.1534 263.395L16.2397 289.288" stroke="black" stroke-width="0.666667" stroke-linecap="square"/>
</g>
<mask id="mask59_10_23231" style="mask-type:luminance" maskUnits="userSpaceOnUse" x="0" y="0" width="358" height="355">
<path d="M357.275 0H0V354.97H357.275V0Z" fill="white"/>
</mask>
<g mask="url(#mask59_10_23231)">
<path d="M47.2549 272.94L16.2397 305.196" stroke="black" stroke-width="0.666667" stroke-linecap="square"/>
</g>
<mask id="mask60_10_23231" style="mask-type:luminance" maskUnits="userSpaceOnUse" x="0" y="0" width="358" height="355">
<path d="M357.275 0H0V354.97H357.275V0Z" fill="white"/>
</mask>
<g mask="url(#mask60_10_23231)">
<path d="M55.3748 278.839L16.2397 322.778" stroke="black" stroke-width="0.666667" stroke-linecap="square"/>
</g>
<mask id="mask61_10_23231" style="mask-type:luminance" maskUnits="userSpaceOnUse" x="0" y="0" width="358" height="355">
<path d="M357.275 0H0V354.97H357.275V0Z" fill="white"/>
</mask>
<g mask="url(#mask61_10_23231)">
<path d="M63.4948 284.739L18.7964 339.883" stroke="black" stroke-width="0.666667" stroke-linecap="square"/>
</g>
<mask id="mask62_10_23231" style="mask-type:luminance" maskUnits="userSpaceOnUse" x="0" y="0" width="358" height="355">
<path d="M357.275 0H0V354.97H357.275V0Z" fill="white"/>
</mask>
<g mask="url(#mask62_10_23231)">
<path d="M71.6145 290.638L37.9189 339.883" stroke="black" stroke-width="0.666667" stroke-linecap="square"/>
</g>
<mask id="mask63_10_23231" style="mask-type:luminance" maskUnits="userSpaceOnUse" x="0" y="0" width="358" height="355">
<path d="M357.275 0H0V354.97H357.275V0Z" fill="white"/>
</mask>
<g mask="url(#mask63_10_23231)">
<path d="M79.7347 296.538L55.0459 339.883" stroke="black" stroke-width="0.666667" stroke-linecap="square"/>
</g>
<mask id="mask64_10_23231" style="mask-type:luminance" maskUnits="userSpaceOnUse" x="0" y="0" width="358" height="355">
<path d="M357.275 0H0V354.97H357.275V0Z" fill="white"/>
</mask>
<g mask="url(#mask64_10_23231)">
<path d="M87.8546 302.437L70.5923 339.883" stroke="black" stroke-width="0.666667" stroke-linecap="square"/>
</g>
<mask id="mask65_10_23231" style="mask-type:luminance" maskUnits="userSpaceOnUse" x="0" y="0" width="358" height="355">
<path d="M357.275 0H0V354.97H357.275V0Z" fill="white"/>
</mask>
<g mask="url(#mask65_10_23231)">
<path d="M95.9741 308.337L84.877 339.883" stroke="black" stroke-width="0.666667" stroke-linecap="square"/>
</g>
<mask id="mask66_10_23231" style="mask-type:luminance" maskUnits="userSpaceOnUse" x="0" y="0" width="358" height="355">
<path d="M357.275 0H0V354.97H357.275V0Z" fill="white"/>
</mask>
<g mask="url(#mask66_10_23231)">
<path d="M104.094 314.236L98.1509 339.883" stroke="black" stroke-width="0.666667" stroke-linecap="square"/>
</g>
<mask id="mask67_10_23231" style="mask-type:luminance" maskUnits="userSpaceOnUse" x="0" y="0" width="358" height="355">
<path d="M357.275 0H0V354.97H357.275V0Z" fill="white"/>
</mask>
<g mask="url(#mask67_10_23231)">
<path d="M112.214 320.135L110.614 339.883" stroke="black" stroke-width="0.666667" stroke-linecap="square"/>
</g>
<mask id="mask68_10_23231" style="mask-type:luminance" maskUnits="userSpaceOnUse" x="0" y="0" width="358" height="355">
<path d="M357.275 0H0V354.97H357.275V0Z" fill="white"/>
</mask>
<g mask="url(#mask68_10_23231)">
<path d="M120.334 326.035L122.431 339.883" stroke="black" stroke-width="0.666667" stroke-linecap="square"/>
</g>
<mask id="mask69_10_23231" style="mask-type:luminance" maskUnits="userSpaceOnUse" x="0" y="0" width="358" height="355">
<path d="M357.275 0H0V354.97H357.275V0Z" fill="white"/>
</mask>
<g mask="url(#mask69_10_23231)">
<path d="M128.454 331.934L133.739 339.883" stroke="black" stroke-width="0.666667" stroke-linecap="square"/>
</g>
<mask id="mask70_10_23231" style="mask-type:luminance" maskUnits="userSpaceOnUse" x="0" y="0" width="358" height="355">
<path d="M357.275 0H0V354.97H357.275V0Z" fill="white"/>
</mask>
<g mask="url(#mask70_10_23231)">
<path d="M138.491 331.934L144.657 339.883" stroke="black" stroke-width="0.666667" stroke-linecap="square"/>
</g>
<mask id="mask71_10_23231" style="mask-type:luminance" maskUnits="userSpaceOnUse" x="0" y="0" width="358" height="355">
<path d="M357.275 0H0V354.97H357.275V0Z" fill="white"/>
</mask>
<g mask="url(#mask71_10_23231)">
<path d="M148.527 331.934L155.288 339.883" stroke="black" stroke-width="0.666667" stroke-linecap="square"/>
</g>
<mask id="mask72_10_23231" style="mask-type:luminance" maskUnits="userSpaceOnUse" x="0" y="0" width="358" height="355">
<path d="M357.275 0H0V354.97H357.275V0Z" fill="white"/>
</mask>
<g mask="url(#mask72_10_23231)">
<path d="M158.564 331.934L165.727 339.883" stroke="black" stroke-width="0.666667" stroke-linecap="square"/>
</g>
<mask id="mask73_10_23231" style="mask-type:luminance" maskUnits="userSpaceOnUse" x="0" y="0" width="358" height="355">
<path d="M357.275 0H0V354.97H357.275V0Z" fill="white"/>
</mask>
<g mask="url(#mask73_10_23231)">
<path d="M168.601 331.934L176.06 339.883" stroke="black" stroke-width="0.666667" stroke-linecap="square"/>
</g>
<mask id="mask74_10_23231" style="mask-type:luminance" maskUnits="userSpaceOnUse" x="0" y="0" width="358" height="355">
<path d="M357.275 0H0V354.97H357.275V0Z" fill="white"/>
</mask>
<g mask="url(#mask74_10_23231)">
<path d="M178.638 331.934L186.374 339.883" stroke="black" stroke-width="0.666667" stroke-linecap="square"/>
</g>
<mask id="mask75_10_23231" style="mask-type:luminance" maskUnits="userSpaceOnUse" x="0" y="0" width="358" height="355">
<path d="M357.275 0H0V354.97H357.275V0Z" fill="white"/>
</mask>
<g mask="url(#mask75_10_23231)">
<path d="M188.674 331.934L196.749 339.883" stroke="black" stroke-width="0.666667" stroke-linecap="square"/>
</g>
<mask id="mask76_10_23231" style="mask-type:luminance" maskUnits="userSpaceOnUse" x="0" y="0" width="358" height="355">
<path d="M357.275 0H0V354.97H357.275V0Z" fill="white"/>
</mask>
<g mask="url(#mask76_10_23231)">
<path d="M198.711 331.934L207.273 339.883" stroke="black" stroke-width="0.666667" stroke-linecap="square"/>
</g>
<mask id="mask77_10_23231" style="mask-type:luminance" maskUnits="userSpaceOnUse" x="0" y="0" width="358" height="355">
<path d="M357.275 0H0V354.97H357.275V0Z" fill="white"/>
</mask>
<g mask="url(#mask77_10_23231)">
<path d="M208.748 331.934L218.035 339.883" stroke="black" stroke-width="0.666667" stroke-linecap="square"/>
</g>
<mask id="mask78_10_23231" style="mask-type:luminance" maskUnits="userSpaceOnUse" x="0" y="0" width="358" height="355">
<path d="M357.275 0H0V354.97H357.275V0Z" fill="white"/>
</mask>
<g mask="url(#mask78_10_23231)">
<path d="M218.785 331.934L229.134 339.883" stroke="black" stroke-width="0.666667" stroke-linecap="square"/>
</g>
<mask id="mask79_10_23231" style="mask-type:luminance" maskUnits="userSpaceOnUse" x="0" y="0" width="358" height="355">
<path d="M357.275 0H0V354.97H357.275V0Z" fill="white"/>
</mask>
<g mask="url(#mask79_10_23231)">
<path d="M228.821 331.934L240.681 339.883" stroke="black" stroke-width="0.666667" stroke-linecap="square"/>
</g>
<mask id="mask80_10_23231" style="mask-type:luminance" maskUnits="userSpaceOnUse" x="0" y="0" width="358" height="355">
<path d="M357.275 0H0V354.97H357.275V0Z" fill="white"/>
</mask>
<g mask="url(#mask80_10_23231)">
<path d="M236.941 326.035L252.802 339.883" stroke="black" stroke-width="0.666667" stroke-linecap="square"/>
</g>
<mask id="mask81_10_23231" style="mask-type:luminance" maskUnits="userSpaceOnUse" x="0" y="0" width="358" height="355">
<path d="M357.275 0H0V354.97H357.275V0Z" fill="white"/>
</mask>
<g mask="url(#mask81_10_23231)">
<path d="M245.061 320.135L265.648 339.883" stroke="black" stroke-width="0.666667" stroke-linecap="square"/>
</g>
<mask id="mask82_10_23231" style="mask-type:luminance" maskUnits="userSpaceOnUse" x="0" y="0" width="358" height="355">
<path d="M357.275 0H0V354.97H357.275V0Z" fill="white"/>
</mask>
<g mask="url(#mask82_10_23231)">
<path d="M253.181 314.236L279.4 339.883" stroke="black" stroke-width="0.666667" stroke-linecap="square"/>
</g>
<mask id="mask83_10_23231" style="mask-type:luminance" maskUnits="userSpaceOnUse" x="0" y="0" width="358" height="355">
<path d="M357.275 0H0V354.97H357.275V0Z" fill="white"/>
</mask>
<g mask="url(#mask83_10_23231)">
<path d="M261.301 308.337L294.281 339.883" stroke="black" stroke-width="0.666667" stroke-linecap="square"/>
</g>
<mask id="mask84_10_23231" style="mask-type:luminance" maskUnits="userSpaceOnUse" x="0" y="0" width="358" height="355">
<path d="M357.275 0H0V354.97H357.275V0Z" fill="white"/>
</mask>
<g mask="url(#mask84_10_23231)">
<path d="M269.42 302.437L310.572 339.883" stroke="black" stroke-width="0.666667" stroke-linecap="square"/>
</g>
<mask id="mask85_10_23231" style="mask-type:luminance" maskUnits="userSpaceOnUse" x="0" y="0" width="358" height="355">
<path d="M357.275 0H0V354.97H357.275V0Z" fill="white"/>
</mask>
<g mask="url(#mask85_10_23231)">
<path d="M277.541 296.538L328.637 339.883" stroke="black" stroke-width="0.666667" stroke-linecap="square"/>
</g>
<mask id="mask86_10_23231" style="mask-type:luminance" maskUnits="userSpaceOnUse" x="0" y="0" width="358" height="355">
<path d="M357.275 0H0V354.97H357.275V0Z" fill="white"/>
</mask>
<g mask="url(#mask86_10_23231)">
<path d="M285.66 290.638L341.035 332.331" stroke="black" stroke-width="0.666667" stroke-linecap="square"/>
</g>
<mask id="mask87_10_23231" style="mask-type:luminance" maskUnits="userSpaceOnUse" x="0" y="0" width="358" height="355">
<path d="M357.275 0H0V354.97H357.275V0Z" fill="white"/>
</mask>
<g mask="url(#mask87_10_23231)">
<path d="M293.78 284.739L341.035 313.753" stroke="black" stroke-width="0.666667" stroke-linecap="square"/>
</g>
<mask id="mask88_10_23231" style="mask-type:luminance" maskUnits="userSpaceOnUse" x="0" y="0" width="358" height="355">
<path d="M357.275 0H0V354.97H357.275V0Z" fill="white"/>
</mask>
<g mask="url(#mask88_10_23231)">
<path d="M301.9 278.839L341.035 297.056" stroke="black" stroke-width="0.666667" stroke-linecap="square"/>
</g>
<mask id="mask89_10_23231" style="mask-type:luminance" maskUnits="userSpaceOnUse" x="0" y="0" width="358" height="355">
<path d="M357.275 0H0V354.97H357.275V0Z" fill="white"/>
</mask>
<g mask="url(#mask89_10_23231)">
<path d="M310.02 272.94L341.035 281.852" stroke="black" stroke-width="0.666667" stroke-linecap="square"/>
</g>
<mask id="mask90_10_23231" style="mask-type:luminance" maskUnits="userSpaceOnUse" x="0" y="0" width="358" height="355">
<path d="M357.275 0H0V354.97H357.275V0Z" fill="white"/>
</mask>
<g mask="url(#mask90_10_23231)">
<path d="M313.122 263.395L341.035 267.841" stroke="black" stroke-width="0.666667" stroke-linecap="square"/>
</g>
<mask id="mask91_10_23231" style="mask-type:luminance" maskUnits="userSpaceOnUse" x="0" y="0" width="358" height="355">
<path d="M357.275 0H0V354.97H357.275V0Z" fill="white"/>
</mask>
<g mask="url(#mask91_10_23231)">
<path d="M316.223 253.849L341.035 254.787" stroke="black" stroke-width="0.666667" stroke-linecap="square"/>
</g>
<mask id="mask92_10_23231" style="mask-type:luminance" maskUnits="userSpaceOnUse" x="0" y="0" width="358" height="355">
<path d="M357.275 0H0V354.97H357.275V0Z" fill="white"/>
</mask>
<g mask="url(#mask92_10_23231)">
<path d="M319.325 244.304L341.035 242.499" stroke="black" stroke-width="0.666667" stroke-linecap="square"/>
</g>
<mask id="mask93_10_23231" style="mask-type:luminance" maskUnits="userSpaceOnUse" x="0" y="0" width="358" height="355">
<path d="M357.275 0H0V354.97H357.275V0Z" fill="white"/>
</mask>
<g mask="url(#mask93_10_23231)">
<path d="M322.426 234.758L341.035 230.822" stroke="black" stroke-width="0.666667" stroke-linecap="square"/>
</g>
<mask id="mask94_10_23231" style="mask-type:luminance" maskUnits="userSpaceOnUse" x="0" y="0" width="358" height="355">
<path d="M357.275 0H0V354.97H357.275V0Z" fill="white"/>
</mask>
<g mask="url(#mask94_10_23231)">
<path d="M325.528 225.212L341.035 219.621" stroke="black" stroke-width="0.666667" stroke-linecap="square"/>
</g>
<mask id="mask95_10_23231" style="mask-type:luminance" maskUnits="userSpaceOnUse" x="0" y="0" width="358" height="355">
<path d="M357.275 0H0V354.97H357.275V0Z" fill="white"/>
</mask>
<g mask="url(#mask95_10_23231)">
<path d="M328.629 215.667L341.035 208.785" stroke="black" stroke-width="0.666667" stroke-linecap="square"/>
</g>
<mask id="mask96_10_23231" style="mask-type:luminance" maskUnits="userSpaceOnUse" x="0" y="0" width="358" height="355">
<path d="M357.275 0H0V354.97H357.275V0Z" fill="white"/>
</mask>
<g mask="url(#mask96_10_23231)">
<path d="M331.73 206.122L341.035 198.21" stroke="black" stroke-width="0.666667" stroke-linecap="square"/>
</g>
<mask id="mask97_10_23231" style="mask-type:luminance" maskUnits="userSpaceOnUse" x="0" y="0" width="358" height="355">
<path d="M357.275 0H0V354.97H357.275V0Z" fill="white"/>
</mask>
<g mask="url(#mask97_10_23231)">
<path d="M334.832 196.576L341.035 187.806" stroke="black" stroke-width="0.666667" stroke-linecap="square"/>
</g>
<mask id="mask98_10_23231" style="mask-type:luminance" maskUnits="userSpaceOnUse" x="0" y="0" width="358" height="355">
<path d="M357.275 0H0V354.97H357.275V0Z" fill="white"/>
</mask>
<g mask="url(#mask98_10_23231)">
<path d="M337.934 187.031L341.035 177.485" stroke="black" stroke-width="0.666667" stroke-linecap="square"/>
</g>
<path d="M17 176.5L47.9392 80.3971L128.939 21.0023H229.061L310.061 80.3971L341 176.5L310.061 272.603L229.061 331.998H128.939L47.9392 272.603L17 176.5Z" fill="#E8C9BF" stroke="black" stroke-width="2.67" stroke-dasharray="6 4"/>
</svg>
