<svg width="358" height="355" viewBox="0 0 358 355" fill="none" xmlns="http://www.w3.org/2000/svg">
<rect x="15.335" y="12.335" width="328.33" height="328.33" fill="#F5F5F5" stroke="#F5F5F5" stroke-width="2.67"/>
<rect x="16.335" y="13.335" width="326.33" height="326.33" fill="#E1E1F6" stroke="black" stroke-width="2.67"/>
<mask id="mask0_13_25242" style="mask-type:luminance" maskUnits="userSpaceOnUse" x="0" y="0" width="358" height="355">
<path d="M357.275 0H0V354.97H357.275V0Z" fill="white"/>
</mask>
<g mask="url(#mask0_13_25242)">
<path d="M337.934 167.939L341.035 167.164" stroke="black" stroke-width="0.666667" stroke-linecap="square"/>
</g>
<mask id="mask1_13_25242" style="mask-type:luminance" maskUnits="userSpaceOnUse" x="0" y="0" width="358" height="355">
<path d="M357.275 0H0V354.97H357.275V0Z" fill="white"/>
</mask>
<g mask="url(#mask1_13_25242)">
<path d="M334.832 158.394L341.035 156.76" stroke="black" stroke-width="0.666667" stroke-linecap="square"/>
</g>
<mask id="mask2_13_25242" style="mask-type:luminance" maskUnits="userSpaceOnUse" x="0" y="0" width="358" height="355">
<path d="M357.275 0H0V354.97H357.275V0Z" fill="white"/>
</mask>
<g mask="url(#mask2_13_25242)">
<path d="M331.73 148.849L341.035 146.185" stroke="black" stroke-width="0.666667" stroke-linecap="square"/>
</g>
<mask id="mask3_13_25242" style="mask-type:luminance" maskUnits="userSpaceOnUse" x="0" y="0" width="358" height="355">
<path d="M357.275 0H0V354.97H357.275V0Z" fill="white"/>
</mask>
<g mask="url(#mask3_13_25242)">
<path d="M328.629 139.303L341.035 135.349" stroke="black" stroke-width="0.666667" stroke-linecap="square"/>
</g>
<mask id="mask4_13_25242" style="mask-type:luminance" maskUnits="userSpaceOnUse" x="0" y="0" width="358" height="355">
<path d="M357.275 0H0V354.97H357.275V0Z" fill="white"/>
</mask>
<g mask="url(#mask4_13_25242)">
<path d="M325.528 129.758L341.035 124.148" stroke="black" stroke-width="0.666667" stroke-linecap="square"/>
</g>
<mask id="mask5_13_25242" style="mask-type:luminance" maskUnits="userSpaceOnUse" x="0" y="0" width="358" height="355">
<path d="M357.275 0H0V354.97H357.275V0Z" fill="white"/>
</mask>
<g mask="url(#mask5_13_25242)">
<path d="M322.426 120.212L341.035 112.471" stroke="black" stroke-width="0.666667" stroke-linecap="square"/>
</g>
<mask id="mask6_13_25242" style="mask-type:luminance" maskUnits="userSpaceOnUse" x="0" y="0" width="358" height="355">
<path d="M357.275 0H0V354.97H357.275V0Z" fill="white"/>
</mask>
<g mask="url(#mask6_13_25242)">
<path d="M319.325 110.667L341.035 100.183" stroke="black" stroke-width="0.666667" stroke-linecap="square"/>
</g>
<mask id="mask7_13_25242" style="mask-type:luminance" maskUnits="userSpaceOnUse" x="0" y="0" width="358" height="355">
<path d="M357.275 0H0V354.97H357.275V0Z" fill="white"/>
</mask>
<g mask="url(#mask7_13_25242)">
<path d="M316.223 101.121L341.035 87.1293" stroke="black" stroke-width="0.666667" stroke-linecap="square"/>
</g>
<mask id="mask8_13_25242" style="mask-type:luminance" maskUnits="userSpaceOnUse" x="0" y="0" width="358" height="355">
<path d="M357.275 0H0V354.97H357.275V0Z" fill="white"/>
</mask>
<g mask="url(#mask8_13_25242)">
<path d="M313.122 91.5755L341.035 73.1183" stroke="black" stroke-width="0.666667" stroke-linecap="square"/>
</g>
<mask id="mask9_13_25242" style="mask-type:luminance" maskUnits="userSpaceOnUse" x="0" y="0" width="358" height="355">
<path d="M357.275 0H0V354.97H357.275V0Z" fill="white"/>
</mask>
<g mask="url(#mask9_13_25242)">
<path d="M310.02 82.03L341.035 57.9141" stroke="black" stroke-width="0.666667" stroke-linecap="square"/>
</g>
<mask id="mask10_13_25242" style="mask-type:luminance" maskUnits="userSpaceOnUse" x="0" y="0" width="358" height="355">
<path d="M357.275 0H0V354.97H357.275V0Z" fill="white"/>
</mask>
<g mask="url(#mask10_13_25242)">
<path d="M301.9 76.1306L341.035 41.2172" stroke="black" stroke-width="0.666667" stroke-linecap="square"/>
</g>
<mask id="mask11_13_25242" style="mask-type:luminance" maskUnits="userSpaceOnUse" x="0" y="0" width="358" height="355">
<path d="M357.275 0H0V354.97H357.275V0Z" fill="white"/>
</mask>
<g mask="url(#mask11_13_25242)">
<path d="M293.78 70.2312L341.035 22.6391" stroke="black" stroke-width="0.666667" stroke-linecap="square"/>
</g>
<mask id="mask12_13_25242" style="mask-type:luminance" maskUnits="userSpaceOnUse" x="0" y="0" width="358" height="355">
<path d="M357.275 0H0V354.97H357.275V0Z" fill="white"/>
</mask>
<g mask="url(#mask12_13_25242)">
<path d="M285.66 64.3317L328.637 15.0873" stroke="black" stroke-width="0.666667" stroke-linecap="square"/>
</g>
<mask id="mask13_13_25242" style="mask-type:luminance" maskUnits="userSpaceOnUse" x="0" y="0" width="358" height="355">
<path d="M357.275 0H0V354.97H357.275V0Z" fill="white"/>
</mask>
<g mask="url(#mask13_13_25242)">
<path d="M277.541 58.4323L310.572 15.0873" stroke="black" stroke-width="0.666667" stroke-linecap="square"/>
</g>
<mask id="mask14_13_25242" style="mask-type:luminance" maskUnits="userSpaceOnUse" x="0" y="0" width="358" height="355">
<path d="M357.275 0H0V354.97H357.275V0Z" fill="white"/>
</mask>
<g mask="url(#mask14_13_25242)">
<path d="M269.42 52.5328L294.28 15.0873" stroke="black" stroke-width="0.666667" stroke-linecap="square"/>
</g>
<mask id="mask15_13_25242" style="mask-type:luminance" maskUnits="userSpaceOnUse" x="0" y="0" width="358" height="355">
<path d="M357.275 0H0V354.97H357.275V0Z" fill="white"/>
</mask>
<g mask="url(#mask15_13_25242)">
<path d="M261.301 46.6334L279.4 15.0873" stroke="black" stroke-width="0.666667" stroke-linecap="square"/>
</g>
<mask id="mask16_13_25242" style="mask-type:luminance" maskUnits="userSpaceOnUse" x="0" y="0" width="358" height="355">
<path d="M357.275 0H0V354.97H357.275V0Z" fill="white"/>
</mask>
<g mask="url(#mask16_13_25242)">
<path d="M253.181 40.7339L265.648 15.0873" stroke="black" stroke-width="0.666667" stroke-linecap="square"/>
</g>
<mask id="mask17_13_25242" style="mask-type:luminance" maskUnits="userSpaceOnUse" x="0" y="0" width="358" height="355">
<path d="M357.275 0H0V354.97H357.275V0Z" fill="white"/>
</mask>
<g mask="url(#mask17_13_25242)">
<path d="M245.061 34.8345L252.802 15.0873" stroke="black" stroke-width="0.666667" stroke-linecap="square"/>
</g>
<mask id="mask18_13_25242" style="mask-type:luminance" maskUnits="userSpaceOnUse" x="0" y="0" width="358" height="355">
<path d="M357.275 0H0V354.97H357.275V0Z" fill="white"/>
</mask>
<g mask="url(#mask18_13_25242)">
<path d="M236.941 28.935L240.681 15.0873" stroke="black" stroke-width="0.666667" stroke-linecap="square"/>
</g>
<mask id="mask19_13_25242" style="mask-type:luminance" maskUnits="userSpaceOnUse" x="0" y="0" width="358" height="355">
<path d="M357.275 0H0V354.97H357.275V0Z" fill="white"/>
</mask>
<g mask="url(#mask19_13_25242)">
<path d="M228.821 23.0356L229.134 15.0873" stroke="black" stroke-width="0.666667" stroke-linecap="square"/>
</g>
<mask id="mask20_13_25242" style="mask-type:luminance" maskUnits="userSpaceOnUse" x="0" y="0" width="358" height="355">
<path d="M357.275 0H0V354.97H357.275V0Z" fill="white"/>
</mask>
<g mask="url(#mask20_13_25242)">
<path d="M218.784 23.0356L218.035 15.0873" stroke="black" stroke-width="0.666667" stroke-linecap="square"/>
</g>
<mask id="mask21_13_25242" style="mask-type:luminance" maskUnits="userSpaceOnUse" x="0" y="0" width="358" height="355">
<path d="M357.275 0H0V354.97H357.275V0Z" fill="white"/>
</mask>
<g mask="url(#mask21_13_25242)">
<path d="M208.748 23.0356L207.272 15.0873" stroke="black" stroke-width="0.666667" stroke-linecap="square"/>
</g>
<mask id="mask22_13_25242" style="mask-type:luminance" maskUnits="userSpaceOnUse" x="0" y="0" width="358" height="355">
<path d="M357.275 0H0V354.97H357.275V0Z" fill="white"/>
</mask>
<g mask="url(#mask22_13_25242)">
<path d="M198.711 23.0356L196.749 15.0873" stroke="black" stroke-width="0.666667" stroke-linecap="square"/>
</g>
<mask id="mask23_13_25242" style="mask-type:luminance" maskUnits="userSpaceOnUse" x="0" y="0" width="358" height="355">
<path d="M357.275 0H0V354.97H357.275V0Z" fill="white"/>
</mask>
<g mask="url(#mask23_13_25242)">
<path d="M188.674 23.0356L186.374 15.0873" stroke="black" stroke-width="0.666667" stroke-linecap="square"/>
</g>
<mask id="mask24_13_25242" style="mask-type:luminance" maskUnits="userSpaceOnUse" x="0" y="0" width="358" height="355">
<path d="M357.275 0H0V354.97H357.275V0Z" fill="white"/>
</mask>
<g mask="url(#mask24_13_25242)">
<path d="M178.637 23.0356L176.061 15.0873" stroke="black" stroke-width="0.666667" stroke-linecap="square"/>
</g>
<mask id="mask25_13_25242" style="mask-type:luminance" maskUnits="userSpaceOnUse" x="0" y="0" width="358" height="355">
<path d="M357.275 0H0V354.97H357.275V0Z" fill="white"/>
</mask>
<g mask="url(#mask25_13_25242)">
<path d="M168.601 23.0356L165.727 15.0873" stroke="black" stroke-width="0.666667" stroke-linecap="square"/>
</g>
<mask id="mask26_13_25242" style="mask-type:luminance" maskUnits="userSpaceOnUse" x="0" y="0" width="358" height="355">
<path d="M357.275 0H0V354.97H357.275V0Z" fill="white"/>
</mask>
<g mask="url(#mask26_13_25242)">
<path d="M158.564 23.0356L155.288 15.0873" stroke="black" stroke-width="0.666667" stroke-linecap="square"/>
</g>
<mask id="mask27_13_25242" style="mask-type:luminance" maskUnits="userSpaceOnUse" x="0" y="0" width="358" height="355">
<path d="M357.275 0H0V354.97H357.275V0Z" fill="white"/>
</mask>
<g mask="url(#mask27_13_25242)">
<path d="M148.527 23.0356L144.657 15.0873" stroke="black" stroke-width="0.666667" stroke-linecap="square"/>
</g>
<mask id="mask28_13_25242" style="mask-type:luminance" maskUnits="userSpaceOnUse" x="0" y="0" width="358" height="355">
<path d="M357.275 0H0V354.97H357.275V0Z" fill="white"/>
</mask>
<g mask="url(#mask28_13_25242)">
<path d="M138.49 23.0356L133.739 15.0873" stroke="black" stroke-width="0.666667" stroke-linecap="square"/>
</g>
<mask id="mask29_13_25242" style="mask-type:luminance" maskUnits="userSpaceOnUse" x="0" y="0" width="358" height="355">
<path d="M357.275 0H0V354.97H357.275V0Z" fill="white"/>
</mask>
<g mask="url(#mask29_13_25242)">
<path d="M128.454 23.0356L122.431 15.0873" stroke="black" stroke-width="0.666667" stroke-linecap="square"/>
</g>
<mask id="mask30_13_25242" style="mask-type:luminance" maskUnits="userSpaceOnUse" x="0" y="0" width="358" height="355">
<path d="M357.275 0H0V354.97H357.275V0Z" fill="white"/>
</mask>
<g mask="url(#mask30_13_25242)">
<path d="M120.334 28.9351L110.614 15.0873" stroke="black" stroke-width="0.666667" stroke-linecap="square"/>
</g>
<mask id="mask31_13_25242" style="mask-type:luminance" maskUnits="userSpaceOnUse" x="0" y="0" width="358" height="355">
<path d="M357.275 0H0V354.97H357.275V0Z" fill="white"/>
</mask>
<g mask="url(#mask31_13_25242)">
<path d="M112.214 34.8345L98.1509 15.0873" stroke="black" stroke-width="0.666667" stroke-linecap="square"/>
</g>
<mask id="mask32_13_25242" style="mask-type:luminance" maskUnits="userSpaceOnUse" x="0" y="0" width="358" height="355">
<path d="M357.275 0H0V354.97H357.275V0Z" fill="white"/>
</mask>
<g mask="url(#mask32_13_25242)">
<path d="M104.094 40.7339L84.877 15.0873" stroke="black" stroke-width="0.666667" stroke-linecap="square"/>
</g>
<mask id="mask33_13_25242" style="mask-type:luminance" maskUnits="userSpaceOnUse" x="0" y="0" width="358" height="355">
<path d="M357.275 0H0V354.97H357.275V0Z" fill="white"/>
</mask>
<g mask="url(#mask33_13_25242)">
<path d="M95.9745 46.6334L70.5923 15.0873" stroke="black" stroke-width="0.666667" stroke-linecap="square"/>
</g>
<mask id="mask34_13_25242" style="mask-type:luminance" maskUnits="userSpaceOnUse" x="0" y="0" width="358" height="355">
<path d="M357.275 0H0V354.97H357.275V0Z" fill="white"/>
</mask>
<g mask="url(#mask34_13_25242)">
<path d="M87.8546 52.5328L55.0459 15.0873" stroke="black" stroke-width="0.666667" stroke-linecap="square"/>
</g>
<mask id="mask35_13_25242" style="mask-type:luminance" maskUnits="userSpaceOnUse" x="0" y="0" width="358" height="355">
<path d="M357.275 0H0V354.97H357.275V0Z" fill="white"/>
</mask>
<g mask="url(#mask35_13_25242)">
<path d="M79.7344 58.4323L37.9189 15.0873" stroke="black" stroke-width="0.666667" stroke-linecap="square"/>
</g>
<mask id="mask36_13_25242" style="mask-type:luminance" maskUnits="userSpaceOnUse" x="0" y="0" width="358" height="355">
<path d="M357.275 0H0V354.97H357.275V0Z" fill="white"/>
</mask>
<g mask="url(#mask36_13_25242)">
<path d="M71.6148 64.3317L18.7964 15.0873" stroke="black" stroke-width="0.666667" stroke-linecap="square"/>
</g>
<mask id="mask37_13_25242" style="mask-type:luminance" maskUnits="userSpaceOnUse" x="0" y="0" width="358" height="355">
<path d="M357.275 0H0V354.97H357.275V0Z" fill="white"/>
</mask>
<g mask="url(#mask37_13_25242)">
<path d="M63.4947 70.2311L16.2397 32.1919" stroke="black" stroke-width="0.666667" stroke-linecap="square"/>
</g>
<mask id="mask38_13_25242" style="mask-type:luminance" maskUnits="userSpaceOnUse" x="0" y="0" width="358" height="355">
<path d="M357.275 0H0V354.97H357.275V0Z" fill="white"/>
</mask>
<g mask="url(#mask38_13_25242)">
<path d="M55.3748 76.1306L16.2397 49.774" stroke="black" stroke-width="0.666667" stroke-linecap="square"/>
</g>
<mask id="mask39_13_25242" style="mask-type:luminance" maskUnits="userSpaceOnUse" x="0" y="0" width="358" height="355">
<path d="M357.275 0H0V354.97H357.275V0Z" fill="white"/>
</mask>
<g mask="url(#mask39_13_25242)">
<path d="M47.2549 82.03L16.2397 65.6824" stroke="black" stroke-width="0.666667" stroke-linecap="square"/>
</g>
<mask id="mask40_13_25242" style="mask-type:luminance" maskUnits="userSpaceOnUse" x="0" y="0" width="358" height="355">
<path d="M357.275 0H0V354.97H357.275V0Z" fill="white"/>
</mask>
<g mask="url(#mask40_13_25242)">
<path d="M44.1534 91.5755L16.2397 80.257" stroke="black" stroke-width="0.666667" stroke-linecap="square"/>
</g>
<mask id="mask41_13_25242" style="mask-type:luminance" maskUnits="userSpaceOnUse" x="0" y="0" width="358" height="355">
<path d="M357.275 0H0V354.97H357.275V0Z" fill="white"/>
</mask>
<g mask="url(#mask41_13_25242)">
<path d="M41.0519 101.121L16.2397 93.7632" stroke="black" stroke-width="0.666667" stroke-linecap="square"/>
</g>
<mask id="mask42_13_25242" style="mask-type:luminance" maskUnits="userSpaceOnUse" x="0" y="0" width="358" height="355">
<path d="M357.275 0H0V354.97H357.275V0Z" fill="white"/>
</mask>
<g mask="url(#mask42_13_25242)">
<path d="M37.9504 110.667L16.2397 106.412" stroke="black" stroke-width="0.666667" stroke-linecap="square"/>
</g>
<mask id="mask43_13_25242" style="mask-type:luminance" maskUnits="userSpaceOnUse" x="0" y="0" width="358" height="355">
<path d="M357.275 0H0V354.97H357.275V0Z" fill="white"/>
</mask>
<g mask="url(#mask43_13_25242)">
<path d="M34.8489 120.212L16.2397 118.377" stroke="black" stroke-width="0.666667" stroke-linecap="square"/>
</g>
<mask id="mask44_13_25242" style="mask-type:luminance" maskUnits="userSpaceOnUse" x="0" y="0" width="358" height="355">
<path d="M357.275 0H0V354.97H357.275V0Z" fill="white"/>
</mask>
<g mask="url(#mask44_13_25242)">
<path d="M31.7473 129.758L16.2397 129.801" stroke="black" stroke-width="0.666667" stroke-linecap="square"/>
</g>
<mask id="mask45_13_25242" style="mask-type:luminance" maskUnits="userSpaceOnUse" x="0" y="0" width="358" height="355">
<path d="M357.275 0H0V354.97H357.275V0Z" fill="white"/>
</mask>
<g mask="url(#mask45_13_25242)">
<path d="M28.6458 139.303L16.2397 140.806" stroke="black" stroke-width="0.666667" stroke-linecap="square"/>
</g>
<mask id="mask46_13_25242" style="mask-type:luminance" maskUnits="userSpaceOnUse" x="0" y="0" width="358" height="355">
<path d="M357.275 0H0V354.97H357.275V0Z" fill="white"/>
</mask>
<g mask="url(#mask46_13_25242)">
<path d="M25.5443 148.849L16.2397 151.5" stroke="black" stroke-width="0.666667" stroke-linecap="square"/>
</g>
<mask id="mask47_13_25242" style="mask-type:luminance" maskUnits="userSpaceOnUse" x="0" y="0" width="358" height="355">
<path d="M357.275 0H0V354.97H357.275V0Z" fill="white"/>
</mask>
<g mask="url(#mask47_13_25242)">
<path d="M22.4428 158.394L16.2397 161.978" stroke="black" stroke-width="0.666667" stroke-linecap="square"/>
</g>
<mask id="mask48_13_25242" style="mask-type:luminance" maskUnits="userSpaceOnUse" x="0" y="0" width="358" height="355">
<path d="M357.275 0H0V354.97H357.275V0Z" fill="white"/>
</mask>
<g mask="url(#mask48_13_25242)">
<path d="M19.3413 167.939L16.2397 172.33" stroke="black" stroke-width="0.666667" stroke-linecap="square"/>
</g>
<mask id="mask49_13_25242" style="mask-type:luminance" maskUnits="userSpaceOnUse" x="0" y="0" width="358" height="355">
<path d="M357.275 0H0V354.97H357.275V0Z" fill="white"/>
</mask>
<g mask="url(#mask49_13_25242)">
<path d="M16.2397 177.485V182.64" stroke="black" stroke-width="0.666667" stroke-linecap="square"/>
</g>
<mask id="mask50_13_25242" style="mask-type:luminance" maskUnits="userSpaceOnUse" x="0" y="0" width="358" height="355">
<path d="M357.275 0H0V354.97H357.275V0Z" fill="white"/>
</mask>
<g mask="url(#mask50_13_25242)">
<path d="M19.3413 187.031L16.2397 192.992" stroke="black" stroke-width="0.666667" stroke-linecap="square"/>
</g>
<mask id="mask51_13_25242" style="mask-type:luminance" maskUnits="userSpaceOnUse" x="0" y="0" width="358" height="355">
<path d="M357.275 0H0V354.97H357.275V0Z" fill="white"/>
</mask>
<g mask="url(#mask51_13_25242)">
<path d="M22.4428 196.576L16.2397 203.47" stroke="black" stroke-width="0.666667" stroke-linecap="square"/>
</g>
<mask id="mask52_13_25242" style="mask-type:luminance" maskUnits="userSpaceOnUse" x="0" y="0" width="358" height="355">
<path d="M357.275 0H0V354.97H357.275V0Z" fill="white"/>
</mask>
<g mask="url(#mask52_13_25242)">
<path d="M25.5443 206.121L16.2397 214.164" stroke="black" stroke-width="0.666667" stroke-linecap="square"/>
</g>
<mask id="mask53_13_25242" style="mask-type:luminance" maskUnits="userSpaceOnUse" x="0" y="0" width="358" height="355">
<path d="M357.275 0H0V354.97H357.275V0Z" fill="white"/>
</mask>
<g mask="url(#mask53_13_25242)">
<path d="M28.6458 215.667L16.2397 225.169" stroke="black" stroke-width="0.666667" stroke-linecap="square"/>
</g>
<mask id="mask54_13_25242" style="mask-type:luminance" maskUnits="userSpaceOnUse" x="0" y="0" width="358" height="355">
<path d="M357.275 0H0V354.97H357.275V0Z" fill="white"/>
</mask>
<g mask="url(#mask54_13_25242)">
<path d="M31.7473 225.213L16.2397 236.593" stroke="black" stroke-width="0.666667" stroke-linecap="square"/>
</g>
<mask id="mask55_13_25242" style="mask-type:luminance" maskUnits="userSpaceOnUse" x="0" y="0" width="358" height="355">
<path d="M357.275 0H0V354.97H357.275V0Z" fill="white"/>
</mask>
<g mask="url(#mask55_13_25242)">
<path d="M34.8489 234.758L16.2397 248.558" stroke="black" stroke-width="0.666667" stroke-linecap="square"/>
</g>
<mask id="mask56_13_25242" style="mask-type:luminance" maskUnits="userSpaceOnUse" x="0" y="0" width="358" height="355">
<path d="M357.275 0H0V354.97H357.275V0Z" fill="white"/>
</mask>
<g mask="url(#mask56_13_25242)">
<path d="M37.9504 244.303L16.2397 261.207" stroke="black" stroke-width="0.666667" stroke-linecap="square"/>
</g>
<mask id="mask57_13_25242" style="mask-type:luminance" maskUnits="userSpaceOnUse" x="0" y="0" width="358" height="355">
<path d="M357.275 0H0V354.97H357.275V0Z" fill="white"/>
</mask>
<g mask="url(#mask57_13_25242)">
<path d="M41.0519 253.849L16.2397 274.713" stroke="black" stroke-width="0.666667" stroke-linecap="square"/>
</g>
<mask id="mask58_13_25242" style="mask-type:luminance" maskUnits="userSpaceOnUse" x="0" y="0" width="358" height="355">
<path d="M357.275 0H0V354.97H357.275V0Z" fill="white"/>
</mask>
<g mask="url(#mask58_13_25242)">
<path d="M44.1534 263.395L16.2397 289.288" stroke="black" stroke-width="0.666667" stroke-linecap="square"/>
</g>
<mask id="mask59_13_25242" style="mask-type:luminance" maskUnits="userSpaceOnUse" x="0" y="0" width="358" height="355">
<path d="M357.275 0H0V354.97H357.275V0Z" fill="white"/>
</mask>
<g mask="url(#mask59_13_25242)">
<path d="M47.2549 272.94L16.2397 305.196" stroke="black" stroke-width="0.666667" stroke-linecap="square"/>
</g>
<mask id="mask60_13_25242" style="mask-type:luminance" maskUnits="userSpaceOnUse" x="0" y="0" width="358" height="355">
<path d="M357.275 0H0V354.97H357.275V0Z" fill="white"/>
</mask>
<g mask="url(#mask60_13_25242)">
<path d="M55.3748 278.839L16.2397 322.778" stroke="black" stroke-width="0.666667" stroke-linecap="square"/>
</g>
<mask id="mask61_13_25242" style="mask-type:luminance" maskUnits="userSpaceOnUse" x="0" y="0" width="358" height="355">
<path d="M357.275 0H0V354.97H357.275V0Z" fill="white"/>
</mask>
<g mask="url(#mask61_13_25242)">
<path d="M63.4948 284.739L18.7964 339.883" stroke="black" stroke-width="0.666667" stroke-linecap="square"/>
</g>
<mask id="mask62_13_25242" style="mask-type:luminance" maskUnits="userSpaceOnUse" x="0" y="0" width="358" height="355">
<path d="M357.275 0H0V354.97H357.275V0Z" fill="white"/>
</mask>
<g mask="url(#mask62_13_25242)">
<path d="M71.6145 290.638L37.9189 339.883" stroke="black" stroke-width="0.666667" stroke-linecap="square"/>
</g>
<mask id="mask63_13_25242" style="mask-type:luminance" maskUnits="userSpaceOnUse" x="0" y="0" width="358" height="355">
<path d="M357.275 0H0V354.97H357.275V0Z" fill="white"/>
</mask>
<g mask="url(#mask63_13_25242)">
<path d="M79.7347 296.538L55.0459 339.883" stroke="black" stroke-width="0.666667" stroke-linecap="square"/>
</g>
<mask id="mask64_13_25242" style="mask-type:luminance" maskUnits="userSpaceOnUse" x="0" y="0" width="358" height="355">
<path d="M357.275 0H0V354.97H357.275V0Z" fill="white"/>
</mask>
<g mask="url(#mask64_13_25242)">
<path d="M87.8546 302.437L70.5923 339.883" stroke="black" stroke-width="0.666667" stroke-linecap="square"/>
</g>
<mask id="mask65_13_25242" style="mask-type:luminance" maskUnits="userSpaceOnUse" x="0" y="0" width="358" height="355">
<path d="M357.275 0H0V354.97H357.275V0Z" fill="white"/>
</mask>
<g mask="url(#mask65_13_25242)">
<path d="M95.9741 308.337L84.877 339.883" stroke="black" stroke-width="0.666667" stroke-linecap="square"/>
</g>
<mask id="mask66_13_25242" style="mask-type:luminance" maskUnits="userSpaceOnUse" x="0" y="0" width="358" height="355">
<path d="M357.275 0H0V354.97H357.275V0Z" fill="white"/>
</mask>
<g mask="url(#mask66_13_25242)">
<path d="M104.094 314.236L98.1509 339.883" stroke="black" stroke-width="0.666667" stroke-linecap="square"/>
</g>
<mask id="mask67_13_25242" style="mask-type:luminance" maskUnits="userSpaceOnUse" x="0" y="0" width="358" height="355">
<path d="M357.275 0H0V354.97H357.275V0Z" fill="white"/>
</mask>
<g mask="url(#mask67_13_25242)">
<path d="M112.214 320.135L110.614 339.883" stroke="black" stroke-width="0.666667" stroke-linecap="square"/>
</g>
<mask id="mask68_13_25242" style="mask-type:luminance" maskUnits="userSpaceOnUse" x="0" y="0" width="358" height="355">
<path d="M357.275 0H0V354.97H357.275V0Z" fill="white"/>
</mask>
<g mask="url(#mask68_13_25242)">
<path d="M120.334 326.035L122.431 339.883" stroke="black" stroke-width="0.666667" stroke-linecap="square"/>
</g>
<mask id="mask69_13_25242" style="mask-type:luminance" maskUnits="userSpaceOnUse" x="0" y="0" width="358" height="355">
<path d="M357.275 0H0V354.97H357.275V0Z" fill="white"/>
</mask>
<g mask="url(#mask69_13_25242)">
<path d="M128.454 331.934L133.739 339.883" stroke="black" stroke-width="0.666667" stroke-linecap="square"/>
</g>
<mask id="mask70_13_25242" style="mask-type:luminance" maskUnits="userSpaceOnUse" x="0" y="0" width="358" height="355">
<path d="M357.275 0H0V354.97H357.275V0Z" fill="white"/>
</mask>
<g mask="url(#mask70_13_25242)">
<path d="M138.491 331.934L144.657 339.883" stroke="black" stroke-width="0.666667" stroke-linecap="square"/>
</g>
<mask id="mask71_13_25242" style="mask-type:luminance" maskUnits="userSpaceOnUse" x="0" y="0" width="358" height="355">
<path d="M357.275 0H0V354.97H357.275V0Z" fill="white"/>
</mask>
<g mask="url(#mask71_13_25242)">
<path d="M148.527 331.934L155.288 339.883" stroke="black" stroke-width="0.666667" stroke-linecap="square"/>
</g>
<mask id="mask72_13_25242" style="mask-type:luminance" maskUnits="userSpaceOnUse" x="0" y="0" width="358" height="355">
<path d="M357.275 0H0V354.97H357.275V0Z" fill="white"/>
</mask>
<g mask="url(#mask72_13_25242)">
<path d="M158.564 331.934L165.727 339.883" stroke="black" stroke-width="0.666667" stroke-linecap="square"/>
</g>
<mask id="mask73_13_25242" style="mask-type:luminance" maskUnits="userSpaceOnUse" x="0" y="0" width="358" height="355">
<path d="M357.275 0H0V354.97H357.275V0Z" fill="white"/>
</mask>
<g mask="url(#mask73_13_25242)">
<path d="M168.601 331.934L176.06 339.883" stroke="black" stroke-width="0.666667" stroke-linecap="square"/>
</g>
<mask id="mask74_13_25242" style="mask-type:luminance" maskUnits="userSpaceOnUse" x="0" y="0" width="358" height="355">
<path d="M357.275 0H0V354.97H357.275V0Z" fill="white"/>
</mask>
<g mask="url(#mask74_13_25242)">
<path d="M178.638 331.934L186.374 339.883" stroke="black" stroke-width="0.666667" stroke-linecap="square"/>
</g>
<mask id="mask75_13_25242" style="mask-type:luminance" maskUnits="userSpaceOnUse" x="0" y="0" width="358" height="355">
<path d="M357.275 0H0V354.97H357.275V0Z" fill="white"/>
</mask>
<g mask="url(#mask75_13_25242)">
<path d="M188.674 331.934L196.749 339.883" stroke="black" stroke-width="0.666667" stroke-linecap="square"/>
</g>
<mask id="mask76_13_25242" style="mask-type:luminance" maskUnits="userSpaceOnUse" x="0" y="0" width="358" height="355">
<path d="M357.275 0H0V354.97H357.275V0Z" fill="white"/>
</mask>
<g mask="url(#mask76_13_25242)">
<path d="M198.711 331.934L207.273 339.883" stroke="black" stroke-width="0.666667" stroke-linecap="square"/>
</g>
<mask id="mask77_13_25242" style="mask-type:luminance" maskUnits="userSpaceOnUse" x="0" y="0" width="358" height="355">
<path d="M357.275 0H0V354.97H357.275V0Z" fill="white"/>
</mask>
<g mask="url(#mask77_13_25242)">
<path d="M208.748 331.934L218.035 339.883" stroke="black" stroke-width="0.666667" stroke-linecap="square"/>
</g>
<mask id="mask78_13_25242" style="mask-type:luminance" maskUnits="userSpaceOnUse" x="0" y="0" width="358" height="355">
<path d="M357.275 0H0V354.97H357.275V0Z" fill="white"/>
</mask>
<g mask="url(#mask78_13_25242)">
<path d="M218.785 331.934L229.134 339.883" stroke="black" stroke-width="0.666667" stroke-linecap="square"/>
</g>
<mask id="mask79_13_25242" style="mask-type:luminance" maskUnits="userSpaceOnUse" x="0" y="0" width="358" height="355">
<path d="M357.275 0H0V354.97H357.275V0Z" fill="white"/>
</mask>
<g mask="url(#mask79_13_25242)">
<path d="M228.821 331.934L240.681 339.883" stroke="black" stroke-width="0.666667" stroke-linecap="square"/>
</g>
<mask id="mask80_13_25242" style="mask-type:luminance" maskUnits="userSpaceOnUse" x="0" y="0" width="358" height="355">
<path d="M357.275 0H0V354.97H357.275V0Z" fill="white"/>
</mask>
<g mask="url(#mask80_13_25242)">
<path d="M236.941 326.035L252.802 339.883" stroke="black" stroke-width="0.666667" stroke-linecap="square"/>
</g>
<mask id="mask81_13_25242" style="mask-type:luminance" maskUnits="userSpaceOnUse" x="0" y="0" width="358" height="355">
<path d="M357.275 0H0V354.97H357.275V0Z" fill="white"/>
</mask>
<g mask="url(#mask81_13_25242)">
<path d="M245.061 320.135L265.648 339.883" stroke="black" stroke-width="0.666667" stroke-linecap="square"/>
</g>
<mask id="mask82_13_25242" style="mask-type:luminance" maskUnits="userSpaceOnUse" x="0" y="0" width="358" height="355">
<path d="M357.275 0H0V354.97H357.275V0Z" fill="white"/>
</mask>
<g mask="url(#mask82_13_25242)">
<path d="M253.181 314.236L279.4 339.883" stroke="black" stroke-width="0.666667" stroke-linecap="square"/>
</g>
<mask id="mask83_13_25242" style="mask-type:luminance" maskUnits="userSpaceOnUse" x="0" y="0" width="358" height="355">
<path d="M357.275 0H0V354.97H357.275V0Z" fill="white"/>
</mask>
<g mask="url(#mask83_13_25242)">
<path d="M261.301 308.337L294.281 339.883" stroke="black" stroke-width="0.666667" stroke-linecap="square"/>
</g>
<mask id="mask84_13_25242" style="mask-type:luminance" maskUnits="userSpaceOnUse" x="0" y="0" width="358" height="355">
<path d="M357.275 0H0V354.97H357.275V0Z" fill="white"/>
</mask>
<g mask="url(#mask84_13_25242)">
<path d="M269.42 302.437L310.572 339.883" stroke="black" stroke-width="0.666667" stroke-linecap="square"/>
</g>
<mask id="mask85_13_25242" style="mask-type:luminance" maskUnits="userSpaceOnUse" x="0" y="0" width="358" height="355">
<path d="M357.275 0H0V354.97H357.275V0Z" fill="white"/>
</mask>
<g mask="url(#mask85_13_25242)">
<path d="M277.541 296.538L328.637 339.883" stroke="black" stroke-width="0.666667" stroke-linecap="square"/>
</g>
<mask id="mask86_13_25242" style="mask-type:luminance" maskUnits="userSpaceOnUse" x="0" y="0" width="358" height="355">
<path d="M357.275 0H0V354.97H357.275V0Z" fill="white"/>
</mask>
<g mask="url(#mask86_13_25242)">
<path d="M285.66 290.638L341.035 332.331" stroke="black" stroke-width="0.666667" stroke-linecap="square"/>
</g>
<mask id="mask87_13_25242" style="mask-type:luminance" maskUnits="userSpaceOnUse" x="0" y="0" width="358" height="355">
<path d="M357.275 0H0V354.97H357.275V0Z" fill="white"/>
</mask>
<g mask="url(#mask87_13_25242)">
<path d="M293.78 284.739L341.035 313.753" stroke="black" stroke-width="0.666667" stroke-linecap="square"/>
</g>
<mask id="mask88_13_25242" style="mask-type:luminance" maskUnits="userSpaceOnUse" x="0" y="0" width="358" height="355">
<path d="M357.275 0H0V354.97H357.275V0Z" fill="white"/>
</mask>
<g mask="url(#mask88_13_25242)">
<path d="M301.9 278.839L341.035 297.056" stroke="black" stroke-width="0.666667" stroke-linecap="square"/>
</g>
<mask id="mask89_13_25242" style="mask-type:luminance" maskUnits="userSpaceOnUse" x="0" y="0" width="358" height="355">
<path d="M357.275 0H0V354.97H357.275V0Z" fill="white"/>
</mask>
<g mask="url(#mask89_13_25242)">
<path d="M310.02 272.94L341.035 281.852" stroke="black" stroke-width="0.666667" stroke-linecap="square"/>
</g>
<mask id="mask90_13_25242" style="mask-type:luminance" maskUnits="userSpaceOnUse" x="0" y="0" width="358" height="355">
<path d="M357.275 0H0V354.97H357.275V0Z" fill="white"/>
</mask>
<g mask="url(#mask90_13_25242)">
<path d="M313.122 263.395L341.035 267.841" stroke="black" stroke-width="0.666667" stroke-linecap="square"/>
</g>
<mask id="mask91_13_25242" style="mask-type:luminance" maskUnits="userSpaceOnUse" x="0" y="0" width="358" height="355">
<path d="M357.275 0H0V354.97H357.275V0Z" fill="white"/>
</mask>
<g mask="url(#mask91_13_25242)">
<path d="M316.223 253.849L341.035 254.787" stroke="black" stroke-width="0.666667" stroke-linecap="square"/>
</g>
<mask id="mask92_13_25242" style="mask-type:luminance" maskUnits="userSpaceOnUse" x="0" y="0" width="358" height="355">
<path d="M357.275 0H0V354.97H357.275V0Z" fill="white"/>
</mask>
<g mask="url(#mask92_13_25242)">
<path d="M319.325 244.304L341.035 242.499" stroke="black" stroke-width="0.666667" stroke-linecap="square"/>
</g>
<mask id="mask93_13_25242" style="mask-type:luminance" maskUnits="userSpaceOnUse" x="0" y="0" width="358" height="355">
<path d="M357.275 0H0V354.97H357.275V0Z" fill="white"/>
</mask>
<g mask="url(#mask93_13_25242)">
<path d="M322.426 234.758L341.035 230.822" stroke="black" stroke-width="0.666667" stroke-linecap="square"/>
</g>
<mask id="mask94_13_25242" style="mask-type:luminance" maskUnits="userSpaceOnUse" x="0" y="0" width="358" height="355">
<path d="M357.275 0H0V354.97H357.275V0Z" fill="white"/>
</mask>
<g mask="url(#mask94_13_25242)">
<path d="M325.528 225.212L341.035 219.621" stroke="black" stroke-width="0.666667" stroke-linecap="square"/>
</g>
<mask id="mask95_13_25242" style="mask-type:luminance" maskUnits="userSpaceOnUse" x="0" y="0" width="358" height="355">
<path d="M357.275 0H0V354.97H357.275V0Z" fill="white"/>
</mask>
<g mask="url(#mask95_13_25242)">
<path d="M328.629 215.667L341.035 208.785" stroke="black" stroke-width="0.666667" stroke-linecap="square"/>
</g>
<mask id="mask96_13_25242" style="mask-type:luminance" maskUnits="userSpaceOnUse" x="0" y="0" width="358" height="355">
<path d="M357.275 0H0V354.97H357.275V0Z" fill="white"/>
</mask>
<g mask="url(#mask96_13_25242)">
<path d="M331.73 206.122L341.035 198.21" stroke="black" stroke-width="0.666667" stroke-linecap="square"/>
</g>
<mask id="mask97_13_25242" style="mask-type:luminance" maskUnits="userSpaceOnUse" x="0" y="0" width="358" height="355">
<path d="M357.275 0H0V354.97H357.275V0Z" fill="white"/>
</mask>
<g mask="url(#mask97_13_25242)">
<path d="M334.832 196.576L341.035 187.806" stroke="black" stroke-width="0.666667" stroke-linecap="square"/>
</g>
<mask id="mask98_13_25242" style="mask-type:luminance" maskUnits="userSpaceOnUse" x="0" y="0" width="358" height="355">
<path d="M357.275 0H0V354.97H357.275V0Z" fill="white"/>
</mask>
<g mask="url(#mask98_13_25242)">
<path d="M337.934 187.031L341.035 177.485" stroke="black" stroke-width="0.666667" stroke-linecap="square"/>
</g>
<path d="M17 176.5L47.9392 80.3971L128.939 21.0023H229.061L310.061 80.3971L341 176.5L310.061 272.603L229.061 331.998H128.939L47.9392 272.603L17 176.5Z" fill="#E8C9BF" stroke="black" stroke-width="2.67" stroke-dasharray="6 4"/>
<path d="M67.0062 191.92C65.6195 192.717 64.1289 193.359 62.5342 193.844C60.9742 194.295 59.3102 194.52 57.5422 194.52C54.9769 194.52 52.5675 194.035 50.3142 193.064C48.0609 192.093 46.1022 190.759 44.4382 189.06C42.7395 187.396 41.4049 185.437 40.4342 183.184C39.4635 180.931 38.9782 178.521 38.9782 175.956C38.9782 173.391 39.4635 170.981 40.4342 168.728C41.4049 166.44 42.7395 164.447 44.4382 162.748C46.1022 161.084 48.0609 159.767 50.3142 158.796C52.5675 157.791 54.9769 157.288 57.5422 157.288C59.3102 157.288 60.9742 157.513 62.5342 157.964C64.1289 158.415 65.6369 159.056 67.0582 159.888L65.8622 161.656C64.6489 160.893 63.3315 160.321 61.9102 159.94C60.5235 159.524 59.0675 159.316 57.5422 159.316C55.2542 159.316 53.1222 159.767 51.1462 160.668C49.1702 161.535 47.4369 162.731 45.9462 164.256C44.4555 165.747 43.2769 167.515 42.4102 169.56C41.5435 171.571 41.1102 173.72 41.1102 176.008C41.1102 178.261 41.5435 180.393 42.4102 182.404C43.2769 184.415 44.4555 186.148 45.9462 187.604C47.4022 189.095 49.1182 190.291 51.0942 191.192C53.0702 192.059 55.1849 192.492 57.4382 192.492C58.7902 192.492 60.0902 192.336 61.3382 192.024C62.5862 191.712 63.7649 191.261 64.8742 190.672V180.532H57.3342V178.504H67.0062V191.92ZM80.8577 176.164C79.5404 176.164 78.327 176.441 77.2177 176.996C76.143 177.551 75.2417 178.296 74.5137 179.232C73.8204 180.133 73.335 181.156 73.0577 182.3C72.7804 183.409 72.763 184.553 73.0057 185.732C75.363 184.796 77.703 183.877 80.0257 182.976C82.383 182.04 84.7404 181.104 87.0977 180.168C86.4737 178.989 85.607 178.036 84.4977 177.308C83.423 176.545 82.2097 176.164 80.8577 176.164ZM87.6697 191.66C86.7684 192.492 85.7457 193.151 84.6017 193.636C83.4577 194.121 82.2097 194.364 80.8577 194.364C79.4364 194.364 78.1017 194.104 76.8537 193.584C75.6404 193.064 74.5657 192.336 73.6297 191.4C72.6937 190.464 71.9657 189.389 71.4457 188.176C70.9257 186.963 70.6657 185.645 70.6657 184.224C70.6657 182.837 70.9257 181.52 71.4457 180.272C71.9657 179.024 72.6937 177.949 73.6297 177.048C74.5657 176.147 75.6404 175.436 76.8537 174.916C78.1017 174.361 79.4364 174.084 80.8577 174.084C81.9324 174.084 82.955 174.275 83.9257 174.656C84.8964 175.003 85.763 175.523 86.5257 176.216C87.2537 176.84 87.895 177.603 88.4497 178.504C89.0044 179.371 89.455 180.324 89.8017 181.364C87.0977 182.439 84.3937 183.496 81.6897 184.536C79.0204 185.576 76.3337 186.651 73.6297 187.76C74.2537 189.112 75.207 190.204 76.4897 191.036C77.7724 191.868 79.2284 192.284 80.8577 192.284C81.9324 192.284 82.9377 192.093 83.8737 191.712C84.8097 191.331 85.6417 190.793 86.3697 190.1L87.6697 191.66ZM111.195 191.4C110.259 192.336 109.149 193.064 107.867 193.584C106.619 194.104 105.284 194.364 103.863 194.364C102.407 194.364 101.055 194.104 99.8068 193.584C98.5935 193.064 97.5362 192.336 96.6348 191.4C95.6988 190.499 94.9708 189.441 94.4508 188.228C93.9308 186.98 93.6708 185.645 93.6708 184.224C93.6708 182.837 93.9308 181.52 94.4508 180.272C94.9708 179.024 95.6988 177.932 96.6348 176.996C97.5362 176.095 98.6108 175.384 99.8588 174.864C101.107 174.309 102.441 174.032 103.863 174.032C105.284 174.032 106.619 174.309 107.867 174.864C109.149 175.384 110.259 176.095 111.195 176.996C112.096 177.932 112.807 179.024 113.327 180.272C113.881 181.52 114.159 182.837 114.159 184.224C114.159 185.645 113.881 186.963 113.327 188.176C112.807 189.389 112.096 190.464 111.195 191.4ZM98.1428 189.892C98.8708 190.655 99.7202 191.244 100.691 191.66C101.661 192.076 102.701 192.284 103.811 192.284C104.92 192.284 105.96 192.076 106.931 191.66C107.936 191.244 108.803 190.655 109.531 189.892C110.293 189.199 110.883 188.367 111.299 187.396C111.715 186.425 111.923 185.368 111.923 184.224C111.923 183.149 111.715 182.127 111.299 181.156C110.883 180.151 110.293 179.267 109.531 178.504C108.803 177.776 107.936 177.204 106.931 176.788C105.96 176.372 104.92 176.164 103.811 176.164C102.701 176.164 101.661 176.372 100.691 176.788C99.7202 177.204 98.8708 177.776 98.1428 178.504C97.4148 179.267 96.8428 180.133 96.4268 181.104C96.0108 182.075 95.8028 183.115 95.8028 184.224C95.8028 185.368 96.0108 186.425 96.4268 187.396C96.8428 188.367 97.4148 189.199 98.1428 189.892ZM136.407 191.66C135.401 192.561 134.223 193.255 132.871 193.74C131.519 194.191 130.097 194.416 128.607 194.416C127.255 194.416 125.989 194.277 124.811 194C123.667 193.723 122.661 193.359 121.795 192.908C120.859 192.492 120.061 192.041 119.403 191.556C118.744 191.036 118.224 190.551 117.843 190.1V184.536H119.923V189.216C120.859 190.083 122.02 190.828 123.407 191.452C124.793 192.076 126.457 192.388 128.399 192.388C129.577 192.388 130.704 192.197 131.779 191.816C132.853 191.435 133.824 190.915 134.691 190.256C135.488 189.563 136.147 188.731 136.667 187.76C137.187 186.755 137.447 185.645 137.447 184.432C137.447 183.219 137.256 182.161 136.875 181.26C136.528 180.359 136.025 179.613 135.367 179.024C134.673 178.331 133.859 177.793 132.923 177.412C132.021 176.996 131.051 176.597 130.011 176.216C128.797 175.835 127.549 175.453 126.267 175.072C125.019 174.691 123.875 174.205 122.835 173.616C121.76 172.992 120.876 172.177 120.183 171.172C119.489 170.167 119.108 168.815 119.039 167.116C119.004 165.972 119.143 164.828 119.455 163.684C119.801 162.505 120.356 161.448 121.119 160.512C121.881 159.576 122.869 158.831 124.083 158.276C125.296 157.687 126.769 157.392 128.503 157.392C129.092 157.392 129.733 157.427 130.427 157.496C131.12 157.565 131.831 157.687 132.559 157.86C133.252 158.033 133.963 158.311 134.691 158.692C135.453 159.039 136.164 159.472 136.823 159.992V165.608H134.743V161.032C134.084 160.616 133.217 160.252 132.143 159.94C131.103 159.593 129.872 159.42 128.451 159.42C127.203 159.42 126.111 159.628 125.175 160.044C124.273 160.46 123.528 161.015 122.939 161.708C122.349 162.401 121.899 163.181 121.587 164.048C121.309 164.915 121.171 165.816 121.171 166.752C121.171 168.312 121.552 169.525 122.315 170.392C123.077 171.224 124.048 171.9 125.227 172.42C126.579 173.044 128.087 173.564 129.751 173.98C131.449 174.396 133.044 174.968 134.535 175.696C135.956 176.424 137.135 177.447 138.071 178.764C139.041 180.081 139.544 181.936 139.579 184.328C139.579 185.853 139.284 187.24 138.695 188.488C138.14 189.736 137.377 190.793 136.407 191.66ZM152.659 194H142.623V191.972H146.627V176.528H142.623V174.5H148.759V191.972H152.659V194ZM149.435 167.584C149.435 168.069 149.261 168.485 148.915 168.832C148.568 169.144 148.169 169.3 147.719 169.3C147.303 169.3 146.921 169.144 146.575 168.832C146.228 168.485 146.055 168.069 146.055 167.584C146.055 167.099 146.228 166.7 146.575 166.388C146.921 166.041 147.303 165.868 147.719 165.868C148.169 165.868 148.568 166.041 148.915 166.388C149.261 166.7 149.435 167.099 149.435 167.584ZM166.319 194H156.283V191.972H160.339V176.528H156.595V174.5H162.055L162.107 176.372C162.142 176.961 162.176 177.499 162.211 177.984C162.246 178.435 162.28 178.955 162.315 179.544C163.008 177.915 164.1 176.615 165.591 175.644C167.116 174.639 168.867 174.119 170.843 174.084C172.611 174.084 174.05 174.569 175.159 175.54C176.268 176.476 176.91 177.724 177.083 179.284C177.846 177.724 178.955 176.476 180.411 175.54C181.902 174.604 183.6 174.119 185.507 174.084C187.448 174.084 188.956 174.621 190.031 175.696C191.14 176.771 191.73 178.175 191.799 179.908V191.972H195.647V194H185.663V191.972H189.667V180.48C189.598 179.336 189.182 178.365 188.419 177.568C187.691 176.736 186.599 176.285 185.143 176.216C184.103 176.216 183.098 176.389 182.127 176.736C181.191 177.083 180.359 177.551 179.631 178.14C178.903 178.764 178.314 179.509 177.863 180.376C177.412 181.208 177.17 182.127 177.135 183.132V191.972H180.983V194H170.947V191.972H175.003V180.48C174.934 179.336 174.518 178.365 173.755 177.568C173.027 176.736 171.935 176.285 170.479 176.216C169.404 176.216 168.382 176.389 167.411 176.736C166.44 177.083 165.608 177.568 164.915 178.192C164.152 178.851 163.546 179.613 163.095 180.48C162.679 181.347 162.471 182.3 162.471 183.34V191.972H166.319V194ZM209.331 194H199.295V191.972H203.299V176.528H199.295V174.5H205.431V191.972H209.331V194ZM206.107 167.584C206.107 168.069 205.933 168.485 205.587 168.832C205.24 169.144 204.841 169.3 204.391 169.3C203.975 169.3 203.593 169.144 203.247 168.832C202.9 168.485 202.727 168.069 202.727 167.584C202.727 167.099 202.9 166.7 203.247 166.388C203.593 166.041 203.975 165.868 204.391 165.868C204.841 165.868 205.24 166.041 205.587 166.388C205.933 166.7 206.107 167.099 206.107 167.584ZM222.991 194H212.955V191.972H216.803V157.028H213.111V155H218.935V191.972H222.991V194ZM250.951 194H245.179V191.868C245.179 191.452 245.179 191.071 245.179 190.724C245.179 190.343 245.179 189.927 245.179 189.476C244.936 190.1 244.555 190.707 244.035 191.296C243.55 191.851 242.96 192.353 242.267 192.804C241.539 193.289 240.707 193.671 239.771 193.948C238.87 194.225 237.899 194.364 236.859 194.364C235.403 194.364 234.051 194.104 232.803 193.584C231.59 193.064 230.515 192.336 229.579 191.4C228.643 190.464 227.915 189.389 227.395 188.176C226.875 186.963 226.615 185.645 226.615 184.224C226.615 182.872 226.875 181.572 227.395 180.324C227.915 179.076 228.643 177.984 229.579 177.048C230.515 176.147 231.59 175.436 232.803 174.916C234.051 174.361 235.403 174.084 236.859 174.084C238.904 174.084 240.655 174.587 242.111 175.592C243.567 176.563 244.59 177.724 245.179 179.076C245.179 178.348 245.196 177.603 245.231 176.84C245.266 176.043 245.318 175.263 245.387 174.5H247.103V191.972H250.951V194ZM236.859 176.164C235.68 176.164 234.588 176.372 233.583 176.788C232.578 177.204 231.728 177.793 231.035 178.556C230.307 179.284 229.735 180.133 229.319 181.104C228.938 182.075 228.747 183.115 228.747 184.224C228.747 185.403 228.972 186.495 229.423 187.5C229.874 188.505 230.498 189.372 231.295 190.1C232.023 190.793 232.855 191.331 233.791 191.712C234.727 192.093 235.75 192.284 236.859 192.284C237.968 192.284 239.008 192.093 239.979 191.712C240.95 191.296 241.799 190.724 242.527 189.996C243.29 189.268 243.879 188.419 244.295 187.448C244.746 186.443 244.971 185.368 244.971 184.224C244.971 183.08 244.746 182.023 244.295 181.052C243.879 180.047 243.307 179.18 242.579 178.452C241.816 177.724 240.95 177.169 239.979 176.788C239.008 176.372 237.968 176.164 236.859 176.164ZM264.631 194H254.595V191.972H258.651V176.528H254.907V174.5H260.367L260.523 177.256C260.558 177.845 260.575 178.227 260.575 178.4C260.575 178.573 260.593 178.955 260.627 179.544C261.009 178.677 261.494 177.915 262.083 177.256C262.707 176.563 263.401 175.991 264.163 175.54C264.891 175.089 265.637 174.743 266.399 174.5C267.197 174.257 267.994 174.119 268.791 174.084L268.687 176.216C267.647 176.216 266.659 176.389 265.723 176.736C264.822 177.048 264.025 177.499 263.331 178.088C262.534 178.677 261.91 179.44 261.459 180.376C261.009 181.277 260.783 182.265 260.783 183.34V191.972H264.631V194ZM282.456 194H272.42V191.972H276.424V176.528H272.42V174.5H278.556V191.972H282.456V194ZM279.232 167.584C279.232 168.069 279.058 168.485 278.712 168.832C278.365 169.144 277.966 169.3 277.516 169.3C277.1 169.3 276.718 169.144 276.372 168.832C276.025 168.485 275.852 168.069 275.852 167.584C275.852 167.099 276.025 166.7 276.372 166.388C276.718 166.041 277.1 165.868 277.516 165.868C277.966 165.868 278.365 166.041 278.712 166.388C279.058 166.7 279.232 167.099 279.232 167.584ZM297 194H290.604V176.58H286.08V174.5H290.604V161.812H292.736V174.5H298.768V176.58H292.736V191.972H297V194ZM315.431 207H305.395V204.972H309.815C310.682 203.135 311.566 201.315 312.467 199.512C313.403 197.709 314.322 195.907 315.223 194.104C313.733 191.192 312.259 188.28 310.803 185.368C309.347 182.456 307.891 179.509 306.435 176.528H302.431V174.5H312.051V176.528H308.723C310.006 179.163 311.289 181.763 312.571 184.328C313.889 186.893 315.154 189.476 316.367 192.076C317.511 189.545 318.725 186.98 320.007 184.38C321.325 181.78 322.642 179.163 323.959 176.528H320.943V174.5H330.043V176.528H326.247C323.89 181.312 321.533 186.061 319.175 190.776C316.818 195.456 314.461 200.188 312.103 204.972H315.431V207Z" fill="black"/>
</svg>
