<svg width="1013" height="253" viewBox="0 0 1013 253" fill="none" xmlns="http://www.w3.org/2000/svg">
<rect x="2.5" y="2.5" width="1008" height="248" fill="#E1E1F6" stroke="black" stroke-width="5"/>
<rect x="44.5" y="44.5" width="923" height="165" fill="#E8C9BF"/>
<rect x="44.5" y="44.5" width="923" height="165" stroke="black" stroke-width="5"/>
<path d="M157.188 159C153.188 161.3 148.888 163.15 144.288 164.55C139.788 165.85 134.988 166.5 129.888 166.5C122.488 166.5 115.538 165.1 109.038 162.3C102.538 159.5 96.8879 155.65 92.0879 150.75C87.1879 145.95 83.3379 140.3 80.5379 133.8C77.7379 127.3 76.3379 120.35 76.3379 112.95C76.3379 105.55 77.7379 98.6 80.5379 92.1C83.3379 85.5 87.1879 79.75 92.0879 74.85C96.8879 70.05 102.538 66.25 109.038 63.45C115.538 60.55 122.488 59.1 129.888 59.1C134.988 59.1 139.788 59.75 144.288 61.05C148.888 62.35 153.238 64.2 157.338 66.6L152.088 74.25C148.788 72.35 145.288 70.85 141.588 69.75C137.888 68.65 133.988 68.1 129.888 68.1C123.788 68.1 118.038 69.3 112.638 71.7C107.338 74 102.738 77.2 98.8379 81.3C94.7379 85.4 91.5379 90.2 89.2379 95.7C86.9379 101.1 85.7879 106.85 85.7879 112.95C85.7879 119.05 86.9379 124.85 89.2379 130.35C91.5379 135.75 94.7379 140.4 98.8379 144.3C102.738 148.4 107.338 151.65 112.638 154.05C117.938 156.35 123.638 157.5 129.738 157.5C132.938 157.5 136.038 157.2 139.038 156.6C142.138 155.9 145.038 154.9 147.738 153.6V129.3H129.288V120.3H157.188V159ZM197.444 116.7C194.144 116.7 191.144 117.35 188.444 118.65C185.844 119.85 183.594 121.55 181.694 123.75C180.194 125.65 179.044 127.85 178.244 130.35C177.444 132.85 177.194 135.5 177.494 138.3C183.194 136.1 188.844 133.9 194.444 131.7C200.144 129.5 205.844 127.35 211.544 125.25C209.944 122.65 207.944 120.6 205.544 119.1C203.144 117.5 200.444 116.7 197.444 116.7ZM216.794 158.25C214.294 160.75 211.394 162.7 208.094 164.1C204.894 165.5 201.344 166.2 197.444 166.2C193.344 166.2 189.444 165.45 185.744 163.95C182.144 162.35 179.044 160.25 176.444 157.65C173.744 154.95 171.594 151.85 169.994 148.35C168.494 144.75 167.744 140.9 167.744 136.8C167.744 132.8 168.494 129 169.994 125.4C171.594 121.8 173.744 118.65 176.444 115.95C179.044 113.35 182.144 111.3 185.744 109.8C189.444 108.2 193.344 107.4 197.444 107.4C200.544 107.4 203.494 108 206.294 109.2C209.094 110.4 211.644 112 213.944 114C216.144 116.1 218.044 118.55 219.644 121.35C221.344 124.15 222.644 127.2 223.544 130.5C216.244 133.3 208.994 136.1 201.794 138.9C194.594 141.6 187.344 144.35 180.044 147.15C181.744 150.15 184.094 152.55 187.094 154.35C190.094 156.15 193.544 157.05 197.444 157.05C200.144 157.05 202.644 156.6 204.944 155.7C207.244 154.7 209.244 153.3 210.944 151.5L216.794 158.25ZM285.688 157.5C282.988 160.2 279.788 162.35 276.088 163.95C272.488 165.45 268.638 166.2 264.538 166.2C260.338 166.2 256.438 165.45 252.838 163.95C249.238 162.35 246.088 160.2 243.388 157.5C240.688 154.9 238.538 151.85 236.938 148.35C235.438 144.75 234.688 140.9 234.688 136.8C234.688 132.8 235.438 129 236.938 125.4C238.538 121.8 240.688 118.65 243.388 115.95C246.088 113.35 249.238 111.3 252.838 109.8C256.438 108.2 260.338 107.4 264.538 107.4C268.638 107.4 272.488 108.2 276.088 109.8C279.788 111.3 283.038 113.35 285.838 115.95C288.438 118.65 290.488 121.8 291.988 125.4C293.588 129 294.388 132.8 294.388 136.8C294.388 140.9 293.588 144.75 291.988 148.35C290.488 151.85 288.388 154.9 285.688 157.5ZM250.138 151.05C251.938 152.95 254.038 154.45 256.438 155.55C258.838 156.55 261.438 157.05 264.238 157.05C267.038 157.05 269.638 156.55 272.038 155.55C274.538 154.45 276.738 152.95 278.638 151.05C280.438 149.25 281.838 147.15 282.838 144.75C283.938 142.35 284.488 139.75 284.488 136.95C284.488 134.15 283.938 131.55 282.838 129.15C281.838 126.65 280.438 124.45 278.638 122.55C276.738 120.75 274.538 119.35 272.038 118.35C269.638 117.25 267.038 116.7 264.238 116.7C261.438 116.7 258.838 117.25 256.438 118.35C254.038 119.35 251.938 120.75 250.138 122.55C248.238 124.45 246.738 126.65 245.638 129.15C244.638 131.55 244.138 134.1 244.138 136.8C244.138 139.7 244.638 142.35 245.638 144.75C246.738 147.15 248.238 149.25 250.138 151.05ZM358.854 158.4C355.954 160.9 352.604 162.85 348.804 164.25C345.004 165.55 340.954 166.2 336.654 166.2C332.854 166.2 329.204 165.8 325.704 165C322.204 164.1 319.054 163 316.254 161.7C313.454 160.4 310.954 158.95 308.754 157.35C306.654 155.65 305.004 153.95 303.804 152.25V135.6H312.804V148.95C315.504 151.25 318.754 153.2 322.554 154.8C326.354 156.4 330.754 157.2 335.754 157.2C338.754 157.2 341.604 156.75 344.304 155.85C347.104 154.95 349.554 153.65 351.654 151.95C353.754 150.25 355.404 148.15 356.604 145.65C357.904 143.15 358.554 140.3 358.554 137.1C358.554 134.5 358.254 132.1 357.654 129.9C357.054 127.7 356.104 125.85 354.804 124.35C353.104 122.35 351.154 120.75 348.954 119.55C346.854 118.35 344.504 117.2 341.904 116.1C338.304 114.8 334.504 113.6 330.504 112.5C326.604 111.4 323.004 109.9 319.704 108C316.304 106.2 313.454 103.75 311.154 100.65C308.954 97.45 307.804 93.05 307.704 87.45C307.604 84.15 308.004 80.85 308.904 77.55C309.904 74.25 311.554 71.25 313.854 68.55C316.054 65.85 318.954 63.65 322.554 61.95C326.254 60.25 330.754 59.4 336.054 59.4C337.754 59.4 339.654 59.5 341.754 59.7C343.854 59.9 346.004 60.25 348.204 60.75C350.304 61.35 352.504 62.2 354.804 63.3C357.104 64.4 359.354 65.85 361.554 67.65V83.1H352.554V72.15C350.654 71.15 348.304 70.3 345.504 69.6C342.704 68.8 339.554 68.4 336.054 68.4C332.754 68.4 329.904 68.95 327.504 70.05C325.104 71.05 323.154 72.45 321.654 74.25C320.154 76.05 319.004 78.05 318.204 80.25C317.504 82.45 317.154 84.75 317.154 87.15C317.154 90.85 318.004 93.8 319.704 96C321.504 98.1 323.854 99.85 326.754 101.25C330.454 103.05 334.754 104.65 339.654 106.05C344.554 107.35 349.254 109.1 353.754 111.3C357.954 113.3 361.354 116.35 363.954 120.45C366.654 124.45 368.004 129.95 368.004 136.95C368.104 141.45 367.304 145.5 365.604 149.1C364.004 152.7 361.754 155.8 358.854 158.4ZM407.684 165H376.484V156H387.434V117.75H376.484V108.75H396.884V156H407.684V165ZM398.684 87.9C398.684 89.7 398.034 91.25 396.734 92.55C395.434 93.75 393.984 94.35 392.384 94.35C390.784 94.35 389.284 93.75 387.884 92.55C386.584 91.25 385.934 89.7 385.934 87.9C385.934 86 386.584 84.45 387.884 83.25C389.284 81.95 390.784 81.3 392.384 81.3C393.984 81.3 395.434 81.95 396.734 83.25C398.034 84.45 398.684 86 398.684 87.9ZM449.432 165H418.232V156H429.782V117.75H419.432V108.75H437.882L438.032 112.05C438.132 114.15 438.232 116.05 438.332 117.75C438.432 119.35 438.582 121.2 438.782 123.3C440.882 118.5 444.032 114.7 448.232 111.9C452.532 109.1 457.532 107.65 463.232 107.55C468.532 107.55 472.832 108.95 476.132 111.75C479.432 114.45 481.382 118.05 481.982 122.55C484.082 117.95 487.232 114.35 491.432 111.75C495.732 109.05 500.632 107.65 506.132 107.55C511.832 107.55 516.332 109.1 519.632 112.2C522.932 115.3 524.682 119.35 524.882 124.35V156H535.232V165H504.032V156H515.432V128.1C515.232 125.1 514.132 122.55 512.132 120.45C510.232 118.25 507.332 117.05 503.432 116.85C500.632 116.85 497.932 117.35 495.332 118.35C492.832 119.25 490.632 120.55 488.732 122.25C486.732 123.95 485.132 125.95 483.932 128.25C482.732 130.55 482.132 133.05 482.132 135.75V156H492.332V165H461.132V156H472.682V128.1C472.482 125.1 471.382 122.55 469.382 120.45C467.482 118.25 464.532 117.05 460.532 116.85C457.632 116.85 454.882 117.35 452.282 118.35C449.782 119.25 447.582 120.55 445.682 122.25C443.682 123.95 442.082 126 440.882 128.4C439.782 130.7 439.232 133.25 439.232 136.05V156H449.432V165ZM576.874 165H545.674V156H556.624V117.75H545.674V108.75H566.074V156H576.874V165ZM567.874 87.9C567.874 89.7 567.224 91.25 565.924 92.55C564.624 93.75 563.174 94.35 561.574 94.35C559.974 94.35 558.474 93.75 557.074 92.55C555.774 91.25 555.124 89.7 555.124 87.9C555.124 86 555.774 84.45 557.074 83.25C558.474 81.95 559.974 81.3 561.574 81.3C563.174 81.3 564.624 81.95 565.924 83.25C567.224 84.45 567.874 86 567.874 87.9ZM618.622 165H587.422V156H598.672V61.5H588.472V52.5H608.122V156H618.622V165ZM700.12 165H680.47V160.5C680.47 159.6 680.47 158.8 680.47 158.1C680.47 157.4 680.47 156.6 680.47 155.7C680.07 156.7 679.27 157.8 678.07 159C676.97 160.2 675.52 161.3 673.72 162.3C671.82 163.5 669.62 164.45 667.12 165.15C664.72 165.85 662.02 166.2 659.02 166.2C654.82 166.2 650.87 165.45 647.17 163.95C643.57 162.35 640.47 160.2 637.87 157.5C635.17 154.9 633.02 151.85 631.42 148.35C629.92 144.75 629.17 140.95 629.17 136.95C629.17 132.95 629.92 129.15 631.42 125.55C633.02 121.95 635.17 118.85 637.87 116.25C640.47 113.55 643.57 111.4 647.17 109.8C650.87 108.2 654.82 107.4 659.02 107.4C664.72 107.4 669.42 108.6 673.12 111C676.82 113.4 679.27 116 680.47 118.8C680.47 117.2 680.52 115.55 680.62 113.85C680.82 112.15 680.97 110.45 681.07 108.75H688.87V156H700.12V165ZM659.02 116.7C656.02 116.7 653.22 117.25 650.62 118.35C648.02 119.35 645.87 120.85 644.17 122.85C642.37 124.65 641.02 126.75 640.12 129.15C639.22 131.45 638.77 134 638.77 136.8C638.77 139.9 639.37 142.8 640.57 145.5C641.77 148.1 643.47 150.3 645.67 152.1C647.37 153.6 649.32 154.8 651.52 155.7C653.82 156.6 656.32 157.05 659.02 157.05C661.82 157.05 664.42 156.55 666.82 155.55C669.32 154.55 671.47 153.2 673.27 151.5C675.17 149.7 676.67 147.55 677.77 145.05C678.87 142.45 679.42 139.7 679.42 136.8C679.42 133.9 678.87 131.2 677.77 128.7C676.67 126.1 675.17 123.95 673.27 122.25C671.47 120.45 669.32 119.1 666.82 118.2C664.42 117.2 661.82 116.7 659.02 116.7ZM741.815 165H710.615V156H722.165V117.75H711.815V108.75H730.265L730.715 116.55C730.915 118.65 730.965 119.8 730.865 120C730.865 120.1 730.965 121.2 731.165 123.3C732.365 120.8 733.865 118.6 735.665 116.7C737.465 114.7 739.415 113.05 741.515 111.75C743.615 110.35 745.665 109.3 747.665 108.6C749.765 107.9 751.765 107.55 753.665 107.55L753.065 116.85C750.365 116.85 747.815 117.25 745.415 118.05C743.015 118.75 740.915 119.8 739.115 121.2C736.815 122.9 734.965 125.05 733.565 127.65C732.265 130.15 731.615 132.95 731.615 136.05V156H741.815V165ZM795.429 165H764.229V156H775.179V117.75H764.229V108.75H784.629V156H795.429V165ZM786.429 87.9C786.429 89.7 785.779 91.25 784.479 92.55C783.179 93.75 781.729 94.35 780.129 94.35C778.529 94.35 777.029 93.75 775.629 92.55C774.329 91.25 773.679 89.7 773.679 87.9C773.679 86 774.329 84.45 775.629 83.25C777.029 81.95 778.529 81.3 780.129 81.3C781.729 81.3 783.179 81.95 784.479 83.25C785.779 84.45 786.429 86 786.429 87.9ZM840.027 165H818.727V118.05H805.977V108.75H818.727V72.15H828.177V108.75H844.227V118.05H828.177V156H840.027V165ZM894.506 202.5H863.306V193.5H876.356C878.756 188.7 881.106 183.95 883.406 179.25C885.806 174.55 888.206 169.85 890.606 165.15C886.606 157.25 882.656 149.4 878.756 141.6C874.856 133.7 870.906 125.75 866.906 117.75H854.756V108.75H885.356V117.75H876.656C879.956 124.25 883.256 130.7 886.556 137.1C889.856 143.5 892.856 149.95 895.556 156.45C898.056 150.15 900.956 143.75 904.256 137.25C907.556 130.75 910.856 124.25 914.156 117.75H905.156V108.75H935.606V117.75H924.056C917.656 130.45 911.306 143.1 905.006 155.7C898.706 168.2 892.406 180.8 886.106 193.5H894.506V202.5Z" fill="black"/>
</svg>
